<?xml version="1.0" encoding="UTF-8" standalone="no"?>
<!-- Created with Inkscape (http://www.inkscape.org/) -->

<svg
   xmlns:dc="http://purl.org/dc/elements/1.1/"
   xmlns:cc="http://creativecommons.org/ns#"
   xmlns:rdf="http://www.w3.org/1999/02/22-rdf-syntax-ns#"
   xmlns:svg="http://www.w3.org/2000/svg"
   xmlns="http://www.w3.org/2000/svg"
   xmlns:sodipodi="http://sodipodi.sourceforge.net/DTD/sodipodi-0.dtd"
   xmlns:inkscape="http://www.inkscape.org/namespaces/inkscape"
   width="441.20126"
   height="151.248"
   id="svg2"
   sodipodi:version="0.32"
   inkscape:version="0.91 r13725"
   sodipodi:docname="boxmodel.svg"
   inkscape:output_extension="org.inkscape.output.svg.inkscape"
   version="1.0">
  <defs
     id="defs4">
    <marker
       inkscape:stockid="Arrow2Mend"
       orient="auto"
       refY="0"
       refX="0"
       id="Arrow2Mend"
       style="overflow:visible">
      <path
         id="path3205"
         style="fill:#009900;font-size:12px;fill-rule:evenodd;stroke-width:0.625;stroke-linejoin:round"
         d="M 8.7185878,4.0337352 -2.2072895,0.01601326 8.7185884,-4.0017078 c -1.7454984,2.3720609 -1.7354408,5.6174519 -6e-7,8.035443 z"
         transform="scale(-0.6,-0.6)"
         inkscape:connector-curvature="0" />
    </marker>
    <marker
       inkscape:stockid="Arrow2Send"
       orient="auto"
       refY="0"
       refX="0"
       id="Arrow2Send"
       style="overflow:visible">
      <path
         id="path3211"
         style="fill:#009900;font-size:12px;fill-rule:evenodd;stroke-width:0.625;stroke-linejoin:round"
         d="M 8.7185878,4.0337352 -2.2072895,0.01601326 8.7185884,-4.0017078 c -1.7454984,2.3720609 -1.7354408,5.6174519 -6e-7,8.035443 z"
         transform="matrix(-0.3,0,0,-0.3,0.69,0)"
         inkscape:connector-curvature="0" />
    </marker>
    <marker
       inkscape:stockid="Arrow2Sstart"
       orient="auto"
       refY="0"
       refX="0"
       id="Arrow2Sstart"
       style="overflow:visible">
      <path
         id="path3208"
         style="fill:#009900;font-size:12px;fill-rule:evenodd;stroke-width:0.625;stroke-linejoin:round"
         d="M 8.7185878,4.0337352 -2.2072895,0.01601326 8.7185884,-4.0017078 c -1.7454984,2.3720609 -1.7354408,5.6174519 -6e-7,8.035443 z"
         transform="matrix(0.3,0,0,0.3,-0.69,0)"
         inkscape:connector-curvature="0" />
    </marker>
    <marker
       inkscape:stockid="Arrow2Mstart"
       orient="auto"
       refY="0"
       refX="0"
       id="Arrow2Mstart"
       style="overflow:visible">
      <path
         id="path3202"
         style="fill:#009900;font-size:12px;fill-rule:evenodd;stroke-width:0.625;stroke-linejoin:round"
         d="M 8.7185878,4.0337352 -2.2072895,0.01601326 8.7185884,-4.0017078 c -1.7454984,2.3720609 -1.7354408,5.6174519 -6e-7,8.035443 z"
         transform="scale(0.6,0.6)"
         inkscape:connector-curvature="0" />
    </marker>
    <marker
       style="overflow:visible"
       id="DistanceEnd"
       refX="0"
       refY="0"
       orient="auto"
       inkscape:stockid="DistanceEnd">
      <g
         id="g3234">
        <path
           style="fill:none;stroke:#ffffff;stroke-width:1.14999998;stroke-linecap:square"
           d="M 0,0 -2,0"
           id="path2316"
           inkscape:connector-curvature="0" />
        <path
           style="fill:#009900;fill-rule:evenodd;stroke:none"
           d="M 0,0 -13,4 -9,0 -13,-4 0,0 z"
           id="path2312"
           inkscape:connector-curvature="0" />
        <path
           style="fill:none;stroke:#000000;stroke-width:1;stroke-linecap:square"
           d="M 0,-4 0,40"
           id="path2314"
           inkscape:connector-curvature="0" />
      </g>
    </marker>
    <marker
       style="overflow:visible"
       id="DistanceStart"
       refX="0"
       refY="0"
       orient="auto"
       inkscape:stockid="DistanceStart">
      <g
         id="g2300">
        <path
           style="fill:none;stroke:#ffffff;stroke-width:1.14999998;stroke-linecap:square"
           d="M 0,0 2,0"
           id="path2306"
           inkscape:connector-curvature="0" />
        <path
           style="fill:#000000;fill-rule:evenodd;stroke:none"
           d="M 0,0 13,4 9,0 13,-4 0,0 z"
           id="path2302"
           inkscape:connector-curvature="0" />
        <path
           style="fill:none;stroke:#000000;stroke-width:1;stroke-linecap:square"
           d="M 0,-4 0,40"
           id="path2304"
           inkscape:connector-curvature="0" />
      </g>
    </marker>
    <inkscape:perspective
       sodipodi:type="inkscape:persp3d"
       inkscape:vp_x="0 : 526.18109 : 1"
       inkscape:vp_y="0 : 1000 : 0"
       inkscape:vp_z="744.09448 : 526.18109 : 1"
       inkscape:persp3d-origin="372.04724 : 350.78739 : 1"
       id="perspective10" />
  </defs>
  <sodipodi:namedview
     id="base"
     pagecolor="#ffffff"
     bordercolor="#666666"
     borderopacity="1.0"
     gridtolerance="10000"
     guidetolerance="10"
     objecttolerance="10"
     inkscape:pageopacity="0.0"
     inkscape:pageshadow="2"
     inkscape:zoom="3.1867542"
     inkscape:cx="218.09024"
     inkscape:cy="78.262007"
     inkscape:document-units="in"
     inkscape:current-layer="layer1"
     showgrid="true"
     inkscape:window-width="1920"
     inkscape:window-height="1056"
     inkscape:window-x="0"
     inkscape:window-y="391"
     inkscape:window-maximized="1"
     units="pt"
     fit-margin-top="0.6"
     fit-margin-left="10"
     fit-margin-right="10"
     fit-margin-bottom="1">
    <inkscape:grid
       type="xygrid"
       id="grid2385"
       visible="true"
       enabled="true"
       empspacing="5"
       snapvisiblegridlinesonly="true"
       originx="11.855187px"
       originy="1.2500064px" />
  </sodipodi:namedview>
  <metadata
     id="metadata7">
    <rdf:RDF>
      <cc:Work
         rdf:about="">
        <dc:format>image/svg+xml</dc:format>
        <dc:type
           rdf:resource="http://purl.org/dc/dcmitype/StillImage" />
      </cc:Work>
    </rdf:RDF>
  </metadata>
  <g
     inkscape:label="Layer 1"
     inkscape:groupmode="layer"
     id="layer1"
     transform="translate(15.907187,-17.640186)">
    <rect
       style="font-weight:bold;fill:#dddddd;fill-opacity:1;stroke:#000000;stroke-width:4;stroke-linejoin:miter;stroke-miterlimit:4;stroke-opacity:1;stroke-dasharray:none;-inkscape-font-specification:Sans Bold"
       id="rect2389"
       width="250"
       height="85"
       x="90"
       y="52.362183" />
    <g
       style="font-size:24px;font-style:normal;font-variant:normal;font-weight:bold;font-stretch:normal;fill:#000000;fill-opacity:1;stroke:none;font-family:FreeSans;-inkscape-font-specification:FreeSans Bold"
       id="text2391">
      <path
         d="m 110.52,94.826183 0,4.536 9.48,0 0,2.999997 -13.08,0 0,-17.495997 12.648,0 0,3 -9.048,0 0,3.96 8.376,0 0,3 -8.376,0"
         id="path3073"
         inkscape:connector-curvature="0" />
      <path
         d="m 125.8575,84.866183 0,17.495997 -3.36,0 0,-17.495997 3.36,0"
         id="path3075"
         inkscape:connector-curvature="0" />
      <path
         d="m 134.36625,89.186183 c 0.55999,1.3e-5 1.10399,0.06401 1.632,0.192 0.52799,0.128012 1.06399,0.360012 1.608,0.696 0.55999,0.336012 1.03999,0.768011 1.44,1.296 0.41599,0.51201 0.75199,1.200009 1.008,2.064 0.25599,0.848008 0.38399,1.824007 0.384,2.928 -1e-5,0.192005 -0.008,0.384005 -0.024,0.576 l -8.688,0 c 0.016,0.496005 0.056,0.928004 0.12,1.296 0.08,0.352003 0.208,0.704003 0.384,1.056 0.19199,0.336002 0.46399,0.600002 0.816,0.791997 0.36799,0.176 0.82399,0.264 1.368,0.264 1.27999,0 2.13599,-0.543995 2.568,-1.631997 l 3.312,0 c -0.36801,1.280002 -1.09601,2.303997 -2.184,3.071997 -1.08801,0.752 -2.36001,1.128 -3.816,1.128 -1.84001,0 -3.288,-0.592 -4.344,-1.776 -1.056,-1.199995 -1.584,-2.839993 -1.584,-4.919997 0,-2.175992 0.536,-3.88799 1.608,-5.136 1.072,-1.263988 2.53599,-1.895987 4.392,-1.896 m 2.568,5.52 c -0.08,-0.943992 -0.34401,-1.671991 -0.792,-2.184 -0.43201,-0.51199 -1.04001,-0.76799 -1.824,-0.768 -1.47201,1e-5 -2.32,0.984009 -2.544,2.952 l 5.16,0"
         id="path3077"
         inkscape:connector-curvature="0" />
      <path
         d="m 142.98188,89.402183 3.33599,0 0,1.608 c 0.56,-0.655988 1.104,-1.119988 1.632,-1.392 0.544,-0.287987 1.184,-0.431987 1.92001,-0.432 1.69598,1.3e-5 2.87198,0.640012 3.52799,1.92 0.95999,-1.279988 2.22399,-1.919987 3.79201,-1.92 1.29598,1.3e-5 2.30398,0.352012 3.024,1.056 0.73598,0.704011 1.10398,1.68801 1.104,2.952 l 0,9.167997 -3.36,0 0,-8.639997 c -2e-5,-0.511991 -0.16802,-0.919991 -0.504,-1.224 -0.32002,-0.30399 -0.76002,-0.45599 -1.32001,-0.456 -0.72001,1e-5 -1.28801,0.22401 -1.70399,0.672 -0.40002,0.448009 -0.60002,1.072008 -0.60001,1.872 l 0,7.775997 -3.35999,0 0,-8.639997 c -1e-5,-0.511991 -0.16801,-0.919991 -0.504,-1.224 -0.32001,-0.30399 -0.76001,-0.45599 -1.32001,-0.456 -0.72,1e-5 -1.288,0.22401 -1.70399,0.672 -0.40001,0.448009 -0.60001,1.072008 -0.60001,1.872 l 0,7.775997 -3.35999,0 0,-12.959997"
         id="path3079"
         inkscape:connector-curvature="0" />
      <path
         d="m 169.85063,89.186183 c 0.55999,1.3e-5 1.10399,0.06401 1.632,0.192 0.52799,0.128012 1.06399,0.360012 1.60799,0.696 0.55999,0.336012 1.03999,0.768011 1.44,1.296 0.41599,0.51201 0.75199,1.200009 1.008,2.064 0.25599,0.848008 0.38399,1.824007 0.38401,2.928 -2e-5,0.192005 -0.008,0.384005 -0.024,0.576 l -8.68801,0 c 0.016,0.496005 0.056,0.928004 0.12,1.296 0.08,0.352003 0.208,0.704003 0.38401,1.056 0.19199,0.336002 0.46399,0.600002 0.81599,0.791997 0.368,0.176 0.824,0.264 1.36801,0.264 1.27999,0 2.13599,-0.543995 2.56799,-1.631997 l 3.31201,0 c -0.36802,1.280002 -1.09602,2.303997 -2.184,3.071997 -1.08801,0.752 -2.36001,1.128 -3.816,1.128 -1.84001,0 -3.28801,-0.592 -4.344,-1.776 -1.05601,-1.199995 -1.58401,-2.839993 -1.584,-4.919997 -1e-5,-2.175992 0.53599,-3.88799 1.608,-5.136 1.07199,-1.263988 2.53599,-1.895987 4.392,-1.896 m 2.56799,5.52 c -0.08,-0.943992 -0.344,-1.671991 -0.792,-2.184 -0.432,-0.51199 -1.04,-0.76799 -1.82399,-0.768 -1.47201,1e-5 -2.32001,0.984009 -2.54401,2.952 l 5.16,0"
         id="path3081"
         inkscape:connector-curvature="0" />
      <path
         d="m 178.46625,89.402183 3.36,0 0,1.872 c 0.92799,-1.391988 2.22399,-2.087987 3.888,-2.088 1.37599,1.3e-5 2.43999,0.392012 3.192,1.176 0.76799,0.784011 1.15199,1.88801 1.152,3.312 l 0,8.687997 -3.36,0 0,-7.991997 c -1e-5,-1.551991 -0.72001,-2.32799 -2.16,-2.328 -0.81601,1e-5 -1.47201,0.23201 -1.968,0.696 -0.49601,0.464009 -0.744,1.080008 -0.744,1.848 l 0,7.775997 -3.36,0 0,-12.959997"
         id="path3083"
         inkscape:connector-curvature="0" />
      <path
         d="m 199.017,89.666183 0,2.232 -1.872,0 0,7.056 c -1e-5,0.576002 0.072,0.960002 0.216,1.151997 0.14399,0.176 0.43999,0.264 0.888,0.264 0.17599,0 0.43199,-0.024 0.768,-0.072 l 0,2.352 c -0.54401,0.176 -1.19201,0.264 -1.944,0.264 -2.192,0 -3.288,-1.016 -3.288,-3.047997 l 0,-7.968 -1.656,0 0,-2.232 1.656,0 0,-3.48 3.36,0 0,3.48 1.872,0"
         id="path3085"
         inkscape:connector-curvature="0" />
      <path
         d="m 219.23063,90.794183 c -0.44802,-2.095987 -1.69602,-3.143986 -3.744,-3.144 -1.42401,1.4e-5 -2.53601,0.544014 -3.33601,1.632 -0.8,1.088012 -1.2,2.60001 -1.19999,4.536 -1e-5,1.904006 0.38399,3.392005 1.15199,4.464 0.784,1.072003 1.872,1.608002 3.264,1.608 1.11999,2e-6 2.01599,-0.303998 2.688,-0.912 0.67199,-0.607996 1.06399,-1.471996 1.17601,-2.592 l 3.50399,0 c -0.11201,2.000004 -0.84001,3.592002 -2.184,4.775997 -1.34401,1.168 -3.10401,1.752 -5.28,1.752 -2.432,0 -4.36,-0.816 -5.78399,-2.448 -1.42401,-1.647994 -2.13601,-3.879992 -2.136,-6.695997 -1e-5,-2.831989 0.71999,-5.071987 2.16,-6.72 1.43999,-1.647983 3.39199,-2.471983 5.85599,-2.472 2.06399,1.7e-5 3.75199,0.552017 5.064,1.656 1.32799,1.104015 2.07199,2.624013 2.232,4.56 l -3.43199,0"
         id="path3087"
         inkscape:connector-curvature="0" />
      <path
         d="m 231.0315,89.186183 c 2.03199,1.3e-5 3.60799,0.616012 4.728,1.848 1.13599,1.21601 1.70399,2.920008 1.704,5.112 -1e-5,2.080004 -0.57601,3.728002 -1.728,4.943997 -1.15201,1.216 -2.71201,1.824 -4.68,1.824 -2.00001,0 -3.568,-0.608 -4.704,-1.824 -1.136,-1.231995 -1.704,-2.911993 -1.704,-5.039997 0,-2.127992 0.568,-3.79999 1.704,-5.016 1.136,-1.231988 2.69599,-1.847987 4.68,-1.848 m 0.024,2.712 c -0.91201,1e-5 -1.64801,0.38401 -2.208,1.152 -0.56,0.768008 -0.84,1.768007 -0.84,3 0,1.232005 0.28,2.232004 0.84,3 0.55999,0.768002 1.29599,1.151997 2.208,1.151997 0.89599,0 1.62399,-0.375995 2.184,-1.127997 0.57599,-0.767996 0.86399,-1.759995 0.864,-2.976 -1e-5,-1.279993 -0.28001,-2.295992 -0.84,-3.048 -0.54401,-0.76799 -1.28001,-1.15199 -2.208,-1.152"
         id="path3089"
         inkscape:connector-curvature="0" />
      <path
         d="m 239.96625,89.402183 3.36,0 0,1.872 c 0.92799,-1.391988 2.22399,-2.087987 3.888,-2.088 1.37599,1.3e-5 2.43999,0.392012 3.192,1.176 0.76799,0.784011 1.15199,1.88801 1.152,3.312 l 0,8.687997 -3.36,0 0,-7.991997 c -1e-5,-1.551991 -0.72001,-2.32799 -2.16,-2.328 -0.81601,1e-5 -1.47201,0.23201 -1.968,0.696 -0.49601,0.464009 -0.744,1.080008 -0.744,1.848 l 0,7.775997 -3.36,0 0,-12.959997"
         id="path3091"
         inkscape:connector-curvature="0" />
      <path
         d="m 260.517,89.666183 0,2.232 -1.872,0 0,7.056 c -10e-6,0.576002 0.072,0.960002 0.216,1.151997 0.14399,0.176 0.43999,0.264 0.888,0.264 0.17599,0 0.43199,-0.024 0.768,-0.072 l 0,2.352 c -0.54401,0.176 -1.19201,0.264 -1.944,0.264 -2.192,0 -3.288,-1.016 -3.288,-3.047997 l 0,-7.968 -1.656,0 0,-2.232 1.656,0 0,-3.48 3.36,0 0,3.48 1.872,0"
         id="path3093"
         inkscape:connector-curvature="0" />
      <path
         d="m 268.19437,89.186183 c 0.56,1.3e-5 1.104,0.06401 1.632,0.192 0.528,0.128012 1.064,0.360012 1.608,0.696 0.55999,0.336012 1.03999,0.768011 1.44,1.296 0.41599,0.51201 0.75199,1.200009 1.00801,2.064 0.25598,0.848008 0.38398,1.824007 0.38399,2.928 -10e-6,0.192005 -0.008,0.384005 -0.024,0.576 l -8.688,0 c 0.016,0.496005 0.056,0.928004 0.12,1.296 0.08,0.352003 0.208,0.704003 0.38401,1.056 0.19199,0.336002 0.46399,0.600002 0.81599,0.791997 0.368,0.176 0.824,0.264 1.368,0.264 1.28,0 2.136,-0.543995 2.56801,-1.631997 l 3.31199,0 c -0.36801,1.280002 -1.09601,2.303997 -2.18399,3.071997 -1.08801,0.752 -2.36001,1.128 -3.81601,1.128 -1.84,0 -3.288,-0.592 -4.344,-1.776 -1.056,-1.199995 -1.584,-2.839993 -1.584,-4.919997 0,-2.175992 0.536,-3.88799 1.608,-5.136 1.072,-1.263988 2.536,-1.895987 4.392,-1.896 m 2.56801,5.52 c -0.08,-0.943992 -0.34401,-1.671991 -0.79201,-2.184 -0.432,-0.51199 -1.04,-0.76799 -1.824,-0.768 -1.472,1e-5 -2.32,0.984009 -2.544,2.952 l 5.16001,0"
         id="path3095"
         inkscape:connector-curvature="0" />
      <path
         d="m 276.81,89.402183 3.36,0 0,1.872 c 0.92799,-1.391988 2.22399,-2.087987 3.888,-2.088 1.37599,1.3e-5 2.43999,0.392012 3.192,1.176 0.76799,0.784011 1.15199,1.88801 1.152,3.312 l 0,8.687997 -3.36,0 0,-7.991997 c -10e-6,-1.551991 -0.72001,-2.32799 -2.16,-2.328 -0.81601,1e-5 -1.47201,0.23201 -1.968,0.696 -0.49601,0.464009 -0.744,1.080008 -0.744,1.848 l 0,7.775997 -3.36,0 0,-12.959997"
         id="path3097"
         inkscape:connector-curvature="0" />
      <path
         d="m 297.36075,89.666183 0,2.232 -1.872,0 0,7.056 c -10e-6,0.576002 0.072,0.960002 0.216,1.151997 0.14399,0.176 0.43999,0.264 0.888,0.264 0.17599,0 0.43199,-0.024 0.768,-0.072 l 0,2.352 c -0.54401,0.176 -1.19201,0.264 -1.944,0.264 -2.192,0 -3.288,-1.016 -3.288,-3.047997 l 0,-7.968 -1.656,0 0,-2.232 1.656,0 0,-3.48 3.36,0 0,3.48 1.872,0"
         id="path3099"
         inkscape:connector-curvature="0" />
      <path
         d="m 302.08612,98.594183 c 0.112,0.544003 0.336,0.960002 0.67201,1.248 0.35199,0.287997 1.00799,0.431997 1.968,0.431997 0.78399,0 1.39199,-0.112 1.82399,-0.335997 0.448,-0.223998 0.672,-0.535997 0.67201,-0.936 -10e-6,-0.255997 -0.088,-0.463997 -0.26401,-0.624 -0.16,-0.159996 -0.448,-0.303996 -0.86399,-0.432 l -4.00801,-1.248 c -0.016,5e-6 -0.112,-0.02399 -0.28799,-0.072 -0.17601,-0.06399 -0.30401,-0.111995 -0.384,-0.144 -0.064,-0.03199 -0.19201,-0.07999 -0.38401,-0.144 -0.192,-0.07999 -0.344,-0.159994 -0.456,-0.24 -0.096,-0.07999 -0.224,-0.175994 -0.38399,-0.288 -0.16001,-0.127994 -0.28801,-0.263994 -0.384,-0.408 -0.08,-0.143993 -0.16801,-0.303993 -0.26401,-0.48 -0.096,-0.191993 -0.168,-0.407993 -0.216,-0.648 -0.048,-0.239992 -0.072,-0.495992 -0.072,-0.768 0,-1.32799 0.472,-2.375989 1.416,-3.144 0.96,-0.783988 2.264,-1.175987 3.91201,-1.176 1.74399,1.3e-5 3.11199,0.392012 4.104,1.176 0.99198,0.768011 1.50398,1.84001 1.536,3.216 l -3.24001,0 c -0.016,-1.16799 -0.824,-1.75199 -2.42399,-1.752 -0.59201,1e-5 -1.06401,0.11201 -1.416,0.336 -0.35201,0.20801 -0.52801,0.496009 -0.528,0.864 -10e-6,0.256009 0.08,0.456008 0.24,0.6 0.15999,0.128008 0.47199,0.264008 0.93599,0.408 l 4.248,1.224 c 1.69599,0.496006 2.54399,1.584005 2.54401,3.264 -2e-5,0.496003 -0.088,0.984002 -0.264,1.464 -0.17602,0.463997 -0.46402,0.927997 -0.86401,1.391997 -0.38401,0.464 -0.96801,0.832 -1.75199,1.104 -0.78401,0.288 -1.71201,0.432 -2.78401,0.432 -3.984,0 -6.024,-1.44 -6.11999,-4.319997 l 3.28799,0"
         id="path3101"
         inkscape:connector-curvature="0" />
    </g>
    <rect
       style="fill:none;stroke:#009900;stroke-width:1;stroke-linejoin:miter;stroke-miterlimit:4;stroke-opacity:1;stroke-dasharray:1, 2;stroke-dashoffset:0"
       id="rect3167"
       width="294.052"
       height="124.724"
       x="65.947998"
       y="32.638184" />
    <text
       xml:space="preserve"
       style="font-size:12px;font-style:normal;font-variant:normal;font-weight:bold;font-stretch:normal;fill:#000000;fill-opacity:1;stroke:none;font-family:FreeSans;-inkscape-font-specification:Sans Bold"
       x="65"
       y="167.36218"
       id="text3169"><tspan
         sodipodi:role="line"
         id="tspan3171"
         x="65"
         y="167.36218">Next contents can start here.</tspan></text>
    <path
       inkscape:connector-curvature="0"
       style="fill:none;stroke:#009900;stroke-width:1px;stroke-linecap:butt;stroke-linejoin:miter;stroke-opacity:1;marker-start:none"
       d="m 106,80.362183 220,0"
       id="path3173"
       sodipodi:nodetypes="cc" />
    <path
       inkscape:connector-curvature="0"
       style="fill:none;stroke:#009900;stroke-width:1px;stroke-linecap:butt;stroke-linejoin:miter;stroke-opacity:1"
       d="m 106,76.362183 0,8"
       id="path6128"
       sodipodi:nodetypes="cc" />
    <path
       inkscape:connector-curvature="0"
       style="fill:none;stroke:#009900;stroke-width:1px;stroke-linecap:butt;stroke-linejoin:miter;stroke-opacity:1"
       d="m 326,76.362183 0,8"
       id="path6130"
       sodipodi:nodetypes="cc" />
    <g
       id="g6169"
       style="stroke:#009900;stroke-opacity:1">
      <path
         sodipodi:nodetypes="cc"
         id="path6156"
         d="m 330,103.36218 0,-18.999997"
         style="fill:none;stroke:#009900;stroke-width:1px;stroke-linecap:butt;stroke-linejoin:miter;stroke-opacity:1"
         inkscape:connector-curvature="0" />
      <path
         sodipodi:nodetypes="cc"
         id="path6158"
         d="m 326,84.362183 8,0"
         style="fill:none;stroke:#009900;stroke-width:1px;stroke-linecap:butt;stroke-linejoin:miter;stroke-opacity:1"
         inkscape:connector-curvature="0" />
      <path
         sodipodi:nodetypes="cc"
         id="path6160"
         d="m 326,103.36218 8,0"
         style="fill:none;stroke:#009900;stroke-width:1px;stroke-linecap:butt;stroke-linejoin:miter;stroke-opacity:1"
         inkscape:connector-curvature="0" />
    </g>
    <rect
       style="fill:none;stroke:#009900;stroke-width:1;stroke-linejoin:miter;stroke-miterlimit:4;stroke-opacity:1;stroke-dasharray:1, 2;stroke-dashoffset:0"
       id="rect6162"
       width="220"
       height="19"
       x="106"
       y="84.362183" />
    <path
       style="fill:none;stroke:#009900;stroke-width:1px;stroke-linecap:butt;stroke-linejoin:miter;stroke-opacity:1;marker-start:url(#Arrow2Mstart);marker-end:url(#Arrow2Mend)"
       d="m 306,134.36218 0,-30"
       id="path6174"
       sodipodi:nodetypes="cc"
       inkscape:connector-curvature="0" />
    <path
       style="fill:none;stroke:#009900;stroke-width:1px;stroke-linecap:butt;stroke-linejoin:miter;stroke-opacity:1;marker-start:url(#Arrow2Mstart);marker-end:url(#Arrow2Mend)"
       d="m 299,156.36218 0,-16"
       id="path9508"
       sodipodi:nodetypes="cc"
       inkscape:connector-curvature="0" />
    <text
       xml:space="preserve"
       style="font-size:12px;font-style:normal;font-variant:normal;font-weight:normal;font-stretch:normal;text-align:end;text-anchor:end;fill:#009900;fill-opacity:1;stroke:none;font-family:FreeSans;-inkscape-font-specification:FreeSans;"
       x="58.9375"
       y="77.362183"
       id="text9510"><tspan
         sodipodi:role="line"
         id="tspan9512"
         x="58.9375"
         y="77.362183">Background</tspan></text>
    <text
       xml:space="preserve"
       style="font-size:12px;font-style:normal;font-variant:normal;font-weight:normal;font-stretch:normal;text-align:end;text-anchor:end;fill:#009900;fill-opacity:1;stroke:none;font-family:FreeSans;-inkscape-font-specification:FreeSans;"
       x="56.070312"
       y="132.36218"
       id="text9514"><tspan
         sodipodi:role="line"
         id="tspan9516"
         x="56.070312"
         y="132.36218">Border</tspan></text>
    <text
       xml:space="preserve"
       style="font-size:12px;font-style:normal;font-variant:normal;font-weight:normal;font-stretch:normal;fill:#009900;fill-opacity:1;stroke:none;font-family:FreeSans;-inkscape-font-specification:FreeSans;"
       x="370"
       y="67.362183"
       id="text9518"><tspan
         sodipodi:role="line"
         x="370"
         y="67.362183"
         id="tspan9524">Padding</tspan></text>
    <text
       xml:space="preserve"
       style="font-size:12px;font-style:normal;font-variant:normal;font-weight:normal;font-stretch:normal;fill:#009900;fill-opacity:1;stroke:none;font-family:FreeSans;-inkscape-font-specification:FreeSans;"
       x="370"
       y="127.36218"
       id="text9526"><tspan
         sodipodi:role="line"
         x="370"
         y="127.36218"
         id="tspan9532">Margin</tspan></text>
    <text
       xml:space="preserve"
       style="font-size:12px;font-style:normal;font-variant:normal;font-weight:normal;font-stretch:normal;fill:#009900;fill-opacity:1;stroke:none;font-family:FreeSans;-inkscape-font-specification:FreeSans;"
       x="165.948"
       y="27.638186"
       id="text9534"><tspan
         sodipodi:role="line"
         id="tspan9536"
         x="165.948"
         y="27.638186">Width</tspan></text>
    <text
       xml:space="preserve"
       style="font-size:12px;font-style:normal;font-variant:normal;font-weight:normal;font-stretch:normal;fill:#009900;fill-opacity:1;stroke:none;font-family:FreeSans;-inkscape-font-specification:FreeSans;"
       x="290.948"
       y="27.638186"
       id="text9538"><tspan
         sodipodi:role="line"
         id="tspan9540"
         x="290.948"
         y="27.638186">Height</tspan></text>
    <path
       style="fill:none;stroke:#009900;stroke-width:0.5;stroke-linecap:butt;stroke-linejoin:miter;stroke-miterlimit:4;stroke-opacity:1;stroke-dasharray:none"
       d="m 326.948,24.638185 c 56,64 3.052,67.723998 3.052,67.723998"
       id="path9544"
       sodipodi:nodetypes="cz"
       inkscape:connector-curvature="0" />
    <path
       style="fill:none;stroke:#000000;stroke-width:0.5;stroke-linecap:butt;stroke-linejoin:miter;stroke-miterlimit:4;stroke-opacity:1;stroke-dasharray:none"
       d="m 196.948,26.638185 c 16,35 -1.948,53.723998 -1.948,53.723998"
       id="path9546"
       sodipodi:nodetypes="cc"
       inkscape:connector-curvature="0" />
    <path
       style="fill:none;stroke:#009900;stroke-width:0.5;stroke-linecap:butt;stroke-linejoin:miter;stroke-miterlimit:4;stroke-opacity:1;stroke-dasharray:none"
       d="m 306,118.36218 c 55,0 64,-49.999997 64,-49.999997"
       id="path9550"
       sodipodi:nodetypes="cc"
       inkscape:connector-curvature="0" />
    <path
       style="fill:none;stroke:#009900;stroke-width:0.5;stroke-linecap:butt;stroke-linejoin:miter;stroke-miterlimit:4;stroke-opacity:1;stroke-dasharray:none"
       d="m 299,147.36218 c 40,5 70,-19 70,-19"
       id="path9552"
       sodipodi:nodetypes="cc"
       inkscape:connector-curvature="0" />
    <path
       style="fill:none;stroke:#009900;stroke-width:1px;stroke-linecap:butt;stroke-linejoin:miter;stroke-opacity:1;marker-end:url(#Arrow2Mend)"
       d="m 55,67.362183 c 15,-10 50,-5 50,-5"
       id="path9554"
       sodipodi:nodetypes="cc"
       inkscape:connector-curvature="0" />
    <path
       style="fill:none;stroke:#009900;stroke-width:1px;stroke-linecap:butt;stroke-linejoin:miter;stroke-opacity:1;marker-end:url(#Arrow2Mend)"
       d="m 48,123.36218 c 12,-10 39,-9 39,-9"
       id="path10119"
       sodipodi:nodetypes="cc"
       inkscape:connector-curvature="0" />
  </g>
</svg>
