<svg style="overflow: hidden; position: relative; top: -0.5px;" xmlns="http://www.w3.org/2000/svg" width="288" version="1.1" height="62.5"><desc>Created with Raphaël 2.1.2</desc><defs></defs><rect style="" stroke="none" fill="#000000" ry="0" rx="0" r="0" height="24" width="18" y="0" x="0"></rect><text transform="matrix(0,1,-1,0,54,32)" font-size="14px" font-family="&quot;Source Code Pro&quot;,monospace" fill="#000000" stroke="none" font="10px &quot;Arial&quot;" text-anchor="start" y="44" x="-5" style="text-anchor: start; font: 14px &quot;Source Code Pro&quot;,monospace;"><tspan dy="4.5">#000</tspan></text><rect style="" stroke="none" fill="#111111" ry="0" rx="0" r="0" height="24" width="18" y="0" x="18"></rect><text transform="matrix(0,1,-1,0,72,14)" font-size="14px" font-family="&quot;Source Code Pro&quot;,monospace" fill="#000000" stroke="none" font="10px &quot;Arial&quot;" text-anchor="start" y="44" x="13" style="text-anchor: start; font: 14px &quot;Source Code Pro&quot;,monospace;"><tspan dy="4.5">#111</tspan></text><rect style="" stroke="none" fill="#222222" ry="0" rx="0" r="0" height="24" width="18" y="0" x="36"></rect><text transform="matrix(0,1,-1,0,90,-4)" font-size="14px" font-family="&quot;Source Code Pro&quot;,monospace" fill="#000000" stroke="none" font="10px &quot;Arial&quot;" text-anchor="start" y="44" x="31" style="text-anchor: start; font: 14px &quot;Source Code Pro&quot;,monospace;"><tspan dy="4.5">#222</tspan></text><rect style="" stroke="none" fill="#333333" ry="0" rx="0" r="0" height="24" width="18" y="0" x="54"></rect><text transform="matrix(0,1,-1,0,108,-22)" font-size="14px" font-family="&quot;Source Code Pro&quot;,monospace" fill="#000000" stroke="none" font="10px &quot;Arial&quot;" text-anchor="start" y="44" x="49" style="text-anchor: start; font: 14px &quot;Source Code Pro&quot;,monospace;"><tspan dy="4.5">#333</tspan></text><rect style="" stroke="none" fill="#444444" ry="0" rx="0" r="0" height="24" width="18" y="0" x="72"></rect><text transform="matrix(0,1,-1,0,126,-40)" font-size="14px" font-family="&quot;Source Code Pro&quot;,monospace" fill="#000000" stroke="none" font="10px &quot;Arial&quot;" text-anchor="start" y="44" x="67" style="text-anchor: start; font: 14px &quot;Source Code Pro&quot;,monospace;"><tspan dy="4.5">#444</tspan></text><rect style="" stroke="none" fill="#555555" ry="0" rx="0" r="0" height="24" width="18" y="0" x="90"></rect><text transform="matrix(0,1,-1,0,144,-58)" font-size="14px" font-family="&quot;Source Code Pro&quot;,monospace" fill="#000000" stroke="none" font="10px &quot;Arial&quot;" text-anchor="start" y="44" x="85" style="text-anchor: start; font: 14px &quot;Source Code Pro&quot;,monospace;"><tspan dy="4.5">#555</tspan></text><rect style="" stroke="none" fill="#666666" ry="0" rx="0" r="0" height="24" width="18" y="0" x="108"></rect><text transform="matrix(0,1,-1,0,162,-76)" font-size="14px" font-family="&quot;Source Code Pro&quot;,monospace" fill="#000000" stroke="none" font="10px &quot;Arial&quot;" text-anchor="start" y="44" x="103" style="text-anchor: start; font: 14px &quot;Source Code Pro&quot;,monospace;"><tspan dy="4.5">#666</tspan></text><rect style="" stroke="none" fill="#777777" ry="0" rx="0" r="0" height="24" width="18" y="0" x="126"></rect><text transform="matrix(0,1,-1,0,180,-94)" font-size="14px" font-family="&quot;Source Code Pro&quot;,monospace" fill="#000000" stroke="none" font="10px &quot;Arial&quot;" text-anchor="start" y="44" x="121" style="text-anchor: start; font: 14px &quot;Source Code Pro&quot;,monospace;"><tspan dy="4.5">#777</tspan></text><rect style="" stroke="none" fill="#888888" ry="0" rx="0" r="0" height="24" width="18" y="0" x="144"></rect><text transform="matrix(0,1,-1,0,198,-112)" font-size="14px" font-family="&quot;Source Code Pro&quot;,monospace" fill="#000000" stroke="none" font="10px &quot;Arial&quot;" text-anchor="start" y="44" x="139" style="text-anchor: start; font: 14px &quot;Source Code Pro&quot;,monospace;"><tspan dy="4.5">#888</tspan></text><rect style="" stroke="none" fill="#999999" ry="0" rx="0" r="0" height="24" width="18" y="0" x="162"></rect><text transform="matrix(0,1,-1,0,216,-130)" font-size="14px" font-family="&quot;Source Code Pro&quot;,monospace" fill="#000000" stroke="none" font="10px &quot;Arial&quot;" text-anchor="start" y="44" x="157" style="text-anchor: start; font: 14px &quot;Source Code Pro&quot;,monospace;"><tspan dy="4.5">#999</tspan></text><rect style="" stroke="none" fill="#aaaaaa" ry="0" rx="0" r="0" height="24" width="18" y="0" x="180"></rect><text transform="matrix(0,1,-1,0,234,-148)" font-size="14px" font-family="&quot;Source Code Pro&quot;,monospace" fill="#000000" stroke="none" font="10px &quot;Arial&quot;" text-anchor="start" y="44" x="175" style="text-anchor: start; font: 14px &quot;Source Code Pro&quot;,monospace;"><tspan dy="4.5">#aaa</tspan></text><rect style="" stroke="none" fill="#bbbbbb" ry="0" rx="0" r="0" height="24" width="18" y="0" x="198"></rect><text transform="matrix(0,1,-1,0,252,-166)" font-size="14px" font-family="&quot;Source Code Pro&quot;,monospace" fill="#000000" stroke="none" font="10px &quot;Arial&quot;" text-anchor="start" y="44" x="193" style="text-anchor: start; font: 14px &quot;Source Code Pro&quot;,monospace;"><tspan dy="4.5">#bbb</tspan></text><rect style="" stroke="none" fill="#cccccc" ry="0" rx="0" r="0" height="24" width="18" y="0" x="216"></rect><text transform="matrix(0,1,-1,0,270,-184)" font-size="14px" font-family="&quot;Source Code Pro&quot;,monospace" fill="#000000" stroke="none" font="10px &quot;Arial&quot;" text-anchor="start" y="44" x="211" style="text-anchor: start; font: 14px &quot;Source Code Pro&quot;,monospace;"><tspan dy="4.5">#ccc</tspan></text><rect style="" stroke="none" fill="#dddddd" ry="0" rx="0" r="0" height="24" width="18" y="0" x="234"></rect><text transform="matrix(0,1,-1,0,288,-202)" font-size="14px" font-family="&quot;Source Code Pro&quot;,monospace" fill="#000000" stroke="none" font="10px &quot;Arial&quot;" text-anchor="start" y="44" x="229" style="text-anchor: start; font: 14px &quot;Source Code Pro&quot;,monospace;"><tspan dy="4.5">#ddd</tspan></text><rect style="" stroke="none" fill="#eeeeee" ry="0" rx="0" r="0" height="24" width="18" y="0" x="252"></rect><text transform="matrix(0,1,-1,0,306,-220)" font-size="14px" font-family="&quot;Source Code Pro&quot;,monospace" fill="#000000" stroke="none" font="10px &quot;Arial&quot;" text-anchor="start" y="44" x="247" style="text-anchor: start; font: 14px &quot;Source Code Pro&quot;,monospace;"><tspan dy="4.5">#eee</tspan></text><rect style="" stroke="none" fill="#ffffff" ry="0" rx="0" r="0" height="24" width="18" y="0" x="270"></rect><text transform="matrix(0,1,-1,0,324,-238)" font-size="14px" font-family="&quot;Source Code Pro&quot;,monospace" fill="#000000" stroke="none" font="10px &quot;Arial&quot;" text-anchor="start" y="44" x="265" style="text-anchor: start; font: 14px &quot;Source Code Pro&quot;,monospace;"><tspan dy="4.5">#fff</tspan></text></svg>
