<svg height="59" width="288" xmlns="http://www.w3.org/2000/svg" id="scale"><desc>Created with Snap</desc><defs></defs><rect fill="#ff0000" style="" height="24" width="18" y="0" x="0"></rect><text transform="matrix(0,1,-1,0,0,0)" style="font-family: &quot;Source Code Pro&quot;,monospace; font-size: 14px;" y="-6" x="27">#f00</text><rect fill="#ff1111" style="" height="24" width="18" y="0" x="18"></rect><text transform="matrix(0,1,-1,0,0,0)" style="font-family: &quot;Source Code Pro&quot;,monospace; font-size: 14px;" y="-24" x="27">#f11</text><rect fill="#ff2222" style="" height="24" width="18" y="0" x="36"></rect><text transform="matrix(0,1,-1,0,0,0)" style="font-family: &quot;Source Code Pro&quot;,monospace; font-size: 14px;" y="-42" x="27">#f22</text><rect fill="#ff3333" style="" height="24" width="18" y="0" x="54"></rect><text transform="matrix(0,1,-1,0,0,0)" style="font-family: &quot;Source Code Pro&quot;,monospace; font-size: 14px;" y="-60" x="27">#f33</text><rect fill="#ff4444" style="" height="24" width="18" y="0" x="72"></rect><text transform="matrix(0,1,-1,0,0,0)" style="font-family: &quot;Source Code Pro&quot;,monospace; font-size: 14px;" y="-78" x="27">#f44</text><rect fill="#ff5555" style="" height="24" width="18" y="0" x="90"></rect><text transform="matrix(0,1,-1,0,0,0)" style="font-family: &quot;Source Code Pro&quot;,monospace; font-size: 14px;" y="-96" x="27">#f55</text><rect fill="#ff6666" style="" height="24" width="18" y="0" x="108"></rect><text transform="matrix(0,1,-1,0,0,0)" style="font-family: &quot;Source Code Pro&quot;,monospace; font-size: 14px;" y="-114" x="27">#f66</text><rect fill="#ff7777" style="" height="24" width="18" y="0" x="126"></rect><text transform="matrix(0,1,-1,0,0,0)" style="font-family: &quot;Source Code Pro&quot;,monospace; font-size: 14px;" y="-132" x="27">#f77</text><rect fill="#ff8888" style="" height="24" width="18" y="0" x="144"></rect><text transform="matrix(0,1,-1,0,0,0)" style="font-family: &quot;Source Code Pro&quot;,monospace; font-size: 14px;" y="-150" x="27">#f88</text><rect fill="#ff9999" style="" height="24" width="18" y="0" x="162"></rect><text transform="matrix(0,1,-1,0,0,0)" style="font-family: &quot;Source Code Pro&quot;,monospace; font-size: 14px;" y="-168" x="27">#f99</text><rect fill="#ffaaaa" style="" height="24" width="18" y="0" x="180"></rect><text transform="matrix(0,1,-1,0,0,0)" style="font-family: &quot;Source Code Pro&quot;,monospace; font-size: 14px;" y="-186" x="27">#faa</text><rect fill="#ffbbbb" style="" height="24" width="18" y="0" x="198"></rect><text transform="matrix(0,1,-1,0,0,0)" style="font-family: &quot;Source Code Pro&quot;,monospace; font-size: 14px;" y="-204" x="27">#fbb</text><rect fill="#ffcccc" style="" height="24" width="18" y="0" x="216"></rect><text transform="matrix(0,1,-1,0,0,0)" style="font-family: &quot;Source Code Pro&quot;,monospace; font-size: 14px;" y="-222" x="27">#fcc</text><rect fill="#ffdddd" style="" height="24" width="18" y="0" x="234"></rect><text transform="matrix(0,1,-1,0,0,0)" style="font-family: &quot;Source Code Pro&quot;,monospace; font-size: 14px;" y="-240" x="27">#fdd</text><rect fill="#ffeeee" style="" height="24" width="18" y="0" x="252"></rect><text transform="matrix(0,1,-1,0,0,0)" style="font-family: &quot;Source Code Pro&quot;,monospace; font-size: 14px;" y="-258" x="27">#fee</text><rect fill="#ffffff" style="" height="24" width="18" y="0" x="270"></rect><text transform="matrix(0,1,-1,0,0,0)" style="font-family: &quot;Source Code Pro&quot;,monospace; font-size: 14px;" y="-276" x="27">#fff</text></svg>
