<svg height="59" width="288" xmlns="http://www.w3.org/2000/svg" id="scale"><desc>Created with Snap</desc><defs></defs><rect fill="#ffff00" style="" height="24" width="18" y="0" x="0"></rect><text transform="matrix(0,1,-1,0,0,0)" style="font-family: &quot;Source Code Pro&quot;,monospace; font-size: 14px;" y="-6" x="27">#ff0</text><rect fill="#ffff11" style="" height="24" width="18" y="0" x="18"></rect><text transform="matrix(0,1,-1,0,0,0)" style="font-family: &quot;Source Code Pro&quot;,monospace; font-size: 14px;" y="-24" x="27">#ff1</text><rect fill="#ffff22" style="" height="24" width="18" y="0" x="36"></rect><text transform="matrix(0,1,-1,0,0,0)" style="font-family: &quot;Source Code Pro&quot;,monospace; font-size: 14px;" y="-42" x="27">#ff2</text><rect fill="#ffff33" style="" height="24" width="18" y="0" x="54"></rect><text transform="matrix(0,1,-1,0,0,0)" style="font-family: &quot;Source Code Pro&quot;,monospace; font-size: 14px;" y="-60" x="27">#ff3</text><rect fill="#ffff44" style="" height="24" width="18" y="0" x="72"></rect><text transform="matrix(0,1,-1,0,0,0)" style="font-family: &quot;Source Code Pro&quot;,monospace; font-size: 14px;" y="-78" x="27">#ff4</text><rect fill="#ffff55" style="" height="24" width="18" y="0" x="90"></rect><text transform="matrix(0,1,-1,0,0,0)" style="font-family: &quot;Source Code Pro&quot;,monospace; font-size: 14px;" y="-96" x="27">#ff5</text><rect fill="#ffff66" style="" height="24" width="18" y="0" x="108"></rect><text transform="matrix(0,1,-1,0,0,0)" style="font-family: &quot;Source Code Pro&quot;,monospace; font-size: 14px;" y="-114" x="27">#ff6</text><rect fill="#ffff77" style="" height="24" width="18" y="0" x="126"></rect><text transform="matrix(0,1,-1,0,0,0)" style="font-family: &quot;Source Code Pro&quot;,monospace; font-size: 14px;" y="-132" x="27">#ff7</text><rect fill="#ffff88" style="" height="24" width="18" y="0" x="144"></rect><text transform="matrix(0,1,-1,0,0,0)" style="font-family: &quot;Source Code Pro&quot;,monospace; font-size: 14px;" y="-150" x="27">#ff8</text><rect fill="#ffff99" style="" height="24" width="18" y="0" x="162"></rect><text transform="matrix(0,1,-1,0,0,0)" style="font-family: &quot;Source Code Pro&quot;,monospace; font-size: 14px;" y="-168" x="27">#ff9</text><rect fill="#ffffaa" style="" height="24" width="18" y="0" x="180"></rect><text transform="matrix(0,1,-1,0,0,0)" style="font-family: &quot;Source Code Pro&quot;,monospace; font-size: 14px;" y="-186" x="27">#ffa</text><rect fill="#ffffbb" style="" height="24" width="18" y="0" x="198"></rect><text transform="matrix(0,1,-1,0,0,0)" style="font-family: &quot;Source Code Pro&quot;,monospace; font-size: 14px;" y="-204" x="27">#ffb</text><rect fill="#ffffcc" style="" height="24" width="18" y="0" x="216"></rect><text transform="matrix(0,1,-1,0,0,0)" style="font-family: &quot;Source Code Pro&quot;,monospace; font-size: 14px;" y="-222" x="27">#ffc</text><rect fill="#ffffdd" style="" height="24" width="18" y="0" x="234"></rect><text transform="matrix(0,1,-1,0,0,0)" style="font-family: &quot;Source Code Pro&quot;,monospace; font-size: 14px;" y="-240" x="27">#ffd</text><rect fill="#ffffee" style="" height="24" width="18" y="0" x="252"></rect><text transform="matrix(0,1,-1,0,0,0)" style="font-family: &quot;Source Code Pro&quot;,monospace; font-size: 14px;" y="-258" x="27">#ffe</text><rect fill="#ffffff" style="" height="24" width="18" y="0" x="270"></rect><text transform="matrix(0,1,-1,0,0,0)" style="font-family: &quot;Source Code Pro&quot;,monospace; font-size: 14px;" y="-276" x="27">#fff</text></svg>
