<svg height="66" width="288" xmlns="http://www.w3.org/2000/svg" id="scale2"><desc>Created with Snap</desc><defs></defs><rect fill="#000000" style="" height="24" width="18" y="0" x="0"></rect><text transform="matrix(0,1,-1,0,0,0)" style="font-family: &quot;Source Code Pro&quot;,monospace; font-size: 14px;" y="-6" x="27">#000</text><rect fill="#111111" style="" height="24" width="18" y="0" x="18"></rect><text transform="matrix(0,1,-1,0,0,0)" style="font-family: &quot;Source Code Pro&quot;,monospace; font-size: 14px;" y="-24" x="27">#111</text><rect fill="#222222" style="" height="24" width="18" y="0" x="36"></rect><text transform="matrix(0,1,-1,0,0,0)" style="font-family: &quot;Source Code Pro&quot;,monospace; font-size: 14px;" y="-42" x="27">#222</text><rect fill="#333333" style="" height="24" width="18" y="0" x="54"></rect><text transform="matrix(0,1,-1,0,0,0)" style="font-family: &quot;Source Code Pro&quot;,monospace; font-size: 14px;" y="-60" x="27">#333</text><rect fill="#444444" style="" height="24" width="18" y="0" x="72"></rect><text transform="matrix(0,1,-1,0,0,0)" style="font-family: &quot;Source Code Pro&quot;,monospace; font-size: 14px;" y="-78" x="27">#444</text><rect fill="#555555" style="" height="24" width="18" y="0" x="90"></rect><text transform="matrix(0,1,-1,0,0,0)" style="font-family: &quot;Source Code Pro&quot;,monospace; font-size: 14px;" y="-96" x="27">#555</text><rect fill="#666666" style="" height="24" width="18" y="0" x="108"></rect><text transform="matrix(0,1,-1,0,0,0)" style="font-family: &quot;Source Code Pro&quot;,monospace; font-size: 14px;" y="-114" x="27">#666</text><rect fill="#777777" style="" height="24" width="18" y="0" x="126"></rect><text transform="matrix(0,1,-1,0,0,0)" style="font-family: &quot;Source Code Pro&quot;,monospace; font-size: 14px;" y="-132" x="27">#777</text><rect fill="#888888" style="" height="24" width="18" y="0" x="144"></rect><text transform="matrix(0,1,-1,0,0,0)" style="font-family: &quot;Source Code Pro&quot;,monospace; font-size: 14px;" y="-150" x="27">#888</text><rect fill="#999999" style="" height="24" width="18" y="0" x="162"></rect><text transform="matrix(0,1,-1,0,0,0)" style="font-family: &quot;Source Code Pro&quot;,monospace; font-size: 14px;" y="-168" x="27">#999</text><rect fill="#aaaaaa" style="" height="24" width="18" y="0" x="180"></rect><text transform="matrix(0,1,-1,0,0,0)" style="font-family: &quot;Source Code Pro&quot;,monospace; font-size: 14px;" y="-186" x="27">#aaa</text><rect fill="#bbbbbb" style="" height="24" width="18" y="0" x="198"></rect><text transform="matrix(0,1,-1,0,0,0)" style="font-family: &quot;Source Code Pro&quot;,monospace; font-size: 14px;" y="-204" x="27">#bbb</text><rect fill="#cccccc" style="" height="24" width="18" y="0" x="216"></rect><text transform="matrix(0,1,-1,0,0,0)" style="font-family: &quot;Source Code Pro&quot;,monospace; font-size: 14px;" y="-222" x="27">#ccc</text><rect fill="#dddddd" style="" height="24" width="18" y="0" x="234"></rect><text transform="matrix(0,1,-1,0,0,0)" style="font-family: &quot;Source Code Pro&quot;,monospace; font-size: 14px;" y="-240" x="27">#ddd</text><rect fill="#eeeeee" style="" height="24" width="18" y="0" x="252"></rect><text transform="matrix(0,1,-1,0,0,0)" style="font-family: &quot;Source Code Pro&quot;,monospace; font-size: 14px;" y="-258" x="27">#eee</text><rect fill="#ffffff" style="" height="24" width="18" y="0" x="270"></rect><text transform="matrix(0,1,-1,0,0,0)" style="font-family: &quot;Source Code Pro&quot;,monospace; font-size: 14px;" y="-276" x="27">#fff</text></svg>
