<svg height="59" width="288" xmlns="http://www.w3.org/2000/svg" id="scale"><desc>Created with Snap</desc><defs></defs><rect fill="#000000" style="" height="24" width="18" y="0" x="0"></rect><text transform="matrix(0,1,-1,0,0,0)" style="font-family: &quot;Source Code Pro&quot;,monospace; font-size: 14px;" y="-6" x="27">#000</text><rect fill="#110000" style="" height="24" width="18" y="0" x="18"></rect><text transform="matrix(0,1,-1,0,0,0)" style="font-family: &quot;Source Code Pro&quot;,monospace; font-size: 14px;" y="-24" x="27">#100</text><rect fill="#220000" style="" height="24" width="18" y="0" x="36"></rect><text transform="matrix(0,1,-1,0,0,0)" style="font-family: &quot;Source Code Pro&quot;,monospace; font-size: 14px;" y="-42" x="27">#200</text><rect fill="#330000" style="" height="24" width="18" y="0" x="54"></rect><text transform="matrix(0,1,-1,0,0,0)" style="font-family: &quot;Source Code Pro&quot;,monospace; font-size: 14px;" y="-60" x="27">#300</text><rect fill="#440000" style="" height="24" width="18" y="0" x="72"></rect><text transform="matrix(0,1,-1,0,0,0)" style="font-family: &quot;Source Code Pro&quot;,monospace; font-size: 14px;" y="-78" x="27">#400</text><rect fill="#550000" style="" height="24" width="18" y="0" x="90"></rect><text transform="matrix(0,1,-1,0,0,0)" style="font-family: &quot;Source Code Pro&quot;,monospace; font-size: 14px;" y="-96" x="27">#500</text><rect fill="#660000" style="" height="24" width="18" y="0" x="108"></rect><text transform="matrix(0,1,-1,0,0,0)" style="font-family: &quot;Source Code Pro&quot;,monospace; font-size: 14px;" y="-114" x="27">#600</text><rect fill="#770000" style="" height="24" width="18" y="0" x="126"></rect><text transform="matrix(0,1,-1,0,0,0)" style="font-family: &quot;Source Code Pro&quot;,monospace; font-size: 14px;" y="-132" x="27">#700</text><rect fill="#880000" style="" height="24" width="18" y="0" x="144"></rect><text transform="matrix(0,1,-1,0,0,0)" style="font-family: &quot;Source Code Pro&quot;,monospace; font-size: 14px;" y="-150" x="27">#800</text><rect fill="#990000" style="" height="24" width="18" y="0" x="162"></rect><text transform="matrix(0,1,-1,0,0,0)" style="font-family: &quot;Source Code Pro&quot;,monospace; font-size: 14px;" y="-168" x="27">#900</text><rect fill="#aa0000" style="" height="24" width="18" y="0" x="180"></rect><text transform="matrix(0,1,-1,0,0,0)" style="font-family: &quot;Source Code Pro&quot;,monospace; font-size: 14px;" y="-186" x="27">#a00</text><rect fill="#bb0000" style="" height="24" width="18" y="0" x="198"></rect><text transform="matrix(0,1,-1,0,0,0)" style="font-family: &quot;Source Code Pro&quot;,monospace; font-size: 14px;" y="-204" x="27">#b00</text><rect fill="#cc0000" style="" height="24" width="18" y="0" x="216"></rect><text transform="matrix(0,1,-1,0,0,0)" style="font-family: &quot;Source Code Pro&quot;,monospace; font-size: 14px;" y="-222" x="27">#c00</text><rect fill="#dd0000" style="" height="24" width="18" y="0" x="234"></rect><text transform="matrix(0,1,-1,0,0,0)" style="font-family: &quot;Source Code Pro&quot;,monospace; font-size: 14px;" y="-240" x="27">#d00</text><rect fill="#ee0000" style="" height="24" width="18" y="0" x="252"></rect><text transform="matrix(0,1,-1,0,0,0)" style="font-family: &quot;Source Code Pro&quot;,monospace; font-size: 14px;" y="-258" x="27">#e00</text><rect fill="#ff0000" style="" height="24" width="18" y="0" x="270"></rect><text transform="matrix(0,1,-1,0,0,0)" style="font-family: &quot;Source Code Pro&quot;,monospace; font-size: 14px;" y="-276" x="27">#f00</text></svg>
