<svg style="overflow: hidden; position: relative;" xmlns="http://www.w3.org/2000/svg" width="288" version="1.1" height="62.5"><desc>Created with Raphaël 2.1.2</desc><defs></defs><rect style="" stroke="none" fill="#ff0000" ry="0" rx="0" r="0" height="24" width="18" y="0" x="0"></rect><text transform="matrix(0,1,-1,0,54,32)" font-size="14px" font-family="&quot;Source Code Pro&quot;,monospace" fill="#000000" stroke="none" font="10px &quot;Arial&quot;" text-anchor="start" y="44" x="-5" style="text-anchor: start; font: 14px &quot;Source Code Pro&quot;,monospace;"><tspan dy="4.5">#f00</tspan></text><rect style="" stroke="none" fill="#ff1111" ry="0" rx="0" r="0" height="24" width="18" y="0" x="18"></rect><text transform="matrix(0,1,-1,0,72,14)" font-size="14px" font-family="&quot;Source Code Pro&quot;,monospace" fill="#000000" stroke="none" font="10px &quot;Arial&quot;" text-anchor="start" y="44" x="13" style="text-anchor: start; font: 14px &quot;Source Code Pro&quot;,monospace;"><tspan dy="4.5">#f11</tspan></text><rect style="" stroke="none" fill="#ff2222" ry="0" rx="0" r="0" height="24" width="18" y="0" x="36"></rect><text transform="matrix(0,1,-1,0,90,-4)" font-size="14px" font-family="&quot;Source Code Pro&quot;,monospace" fill="#000000" stroke="none" font="10px &quot;Arial&quot;" text-anchor="start" y="44" x="31" style="text-anchor: start; font: 14px &quot;Source Code Pro&quot;,monospace;"><tspan dy="4.5">#f22</tspan></text><rect style="" stroke="none" fill="#ff3333" ry="0" rx="0" r="0" height="24" width="18" y="0" x="54"></rect><text transform="matrix(0,1,-1,0,108,-22)" font-size="14px" font-family="&quot;Source Code Pro&quot;,monospace" fill="#000000" stroke="none" font="10px &quot;Arial&quot;" text-anchor="start" y="44" x="49" style="text-anchor: start; font: 14px &quot;Source Code Pro&quot;,monospace;"><tspan dy="4.5">#f33</tspan></text><rect style="" stroke="none" fill="#ff4444" ry="0" rx="0" r="0" height="24" width="18" y="0" x="72"></rect><text transform="matrix(0,1,-1,0,126,-40)" font-size="14px" font-family="&quot;Source Code Pro&quot;,monospace" fill="#000000" stroke="none" font="10px &quot;Arial&quot;" text-anchor="start" y="44" x="67" style="text-anchor: start; font: 14px &quot;Source Code Pro&quot;,monospace;"><tspan dy="4.5">#f44</tspan></text><rect style="" stroke="none" fill="#ff5555" ry="0" rx="0" r="0" height="24" width="18" y="0" x="90"></rect><text transform="matrix(0,1,-1,0,144,-58)" font-size="14px" font-family="&quot;Source Code Pro&quot;,monospace" fill="#000000" stroke="none" font="10px &quot;Arial&quot;" text-anchor="start" y="44" x="85" style="text-anchor: start; font: 14px &quot;Source Code Pro&quot;,monospace;"><tspan dy="4.5">#f55</tspan></text><rect style="" stroke="none" fill="#ff6666" ry="0" rx="0" r="0" height="24" width="18" y="0" x="108"></rect><text transform="matrix(0,1,-1,0,162,-76)" font-size="14px" font-family="&quot;Source Code Pro&quot;,monospace" fill="#000000" stroke="none" font="10px &quot;Arial&quot;" text-anchor="start" y="44" x="103" style="text-anchor: start; font: 14px &quot;Source Code Pro&quot;,monospace;"><tspan dy="4.5">#f66</tspan></text><rect style="" stroke="none" fill="#ff7777" ry="0" rx="0" r="0" height="24" width="18" y="0" x="126"></rect><text transform="matrix(0,1,-1,0,180,-94)" font-size="14px" font-family="&quot;Source Code Pro&quot;,monospace" fill="#000000" stroke="none" font="10px &quot;Arial&quot;" text-anchor="start" y="44" x="121" style="text-anchor: start; font: 14px &quot;Source Code Pro&quot;,monospace;"><tspan dy="4.5">#f77</tspan></text><rect style="" stroke="none" fill="#ff8888" ry="0" rx="0" r="0" height="24" width="18" y="0" x="144"></rect><text transform="matrix(0,1,-1,0,198,-112)" font-size="14px" font-family="&quot;Source Code Pro&quot;,monospace" fill="#000000" stroke="none" font="10px &quot;Arial&quot;" text-anchor="start" y="44" x="139" style="text-anchor: start; font: 14px &quot;Source Code Pro&quot;,monospace;"><tspan dy="4.5">#f88</tspan></text><rect style="" stroke="none" fill="#ff9999" ry="0" rx="0" r="0" height="24" width="18" y="0" x="162"></rect><text transform="matrix(0,1,-1,0,216,-130)" font-size="14px" font-family="&quot;Source Code Pro&quot;,monospace" fill="#000000" stroke="none" font="10px &quot;Arial&quot;" text-anchor="start" y="44" x="157" style="text-anchor: start; font: 14px &quot;Source Code Pro&quot;,monospace;"><tspan dy="4.5">#f99</tspan></text><rect style="" stroke="none" fill="#ffaaaa" ry="0" rx="0" r="0" height="24" width="18" y="0" x="180"></rect><text transform="matrix(0,1,-1,0,234,-148)" font-size="14px" font-family="&quot;Source Code Pro&quot;,monospace" fill="#000000" stroke="none" font="10px &quot;Arial&quot;" text-anchor="start" y="44" x="175" style="text-anchor: start; font: 14px &quot;Source Code Pro&quot;,monospace;"><tspan dy="4.5">#faa</tspan></text><rect style="" stroke="none" fill="#ffbbbb" ry="0" rx="0" r="0" height="24" width="18" y="0" x="198"></rect><text transform="matrix(0,1,-1,0,252,-166)" font-size="14px" font-family="&quot;Source Code Pro&quot;,monospace" fill="#000000" stroke="none" font="10px &quot;Arial&quot;" text-anchor="start" y="44" x="193" style="text-anchor: start; font: 14px &quot;Source Code Pro&quot;,monospace;"><tspan dy="4.5">#fbb</tspan></text><rect style="" stroke="none" fill="#ffcccc" ry="0" rx="0" r="0" height="24" width="18" y="0" x="216"></rect><text transform="matrix(0,1,-1,0,270,-184)" font-size="14px" font-family="&quot;Source Code Pro&quot;,monospace" fill="#000000" stroke="none" font="10px &quot;Arial&quot;" text-anchor="start" y="44" x="211" style="text-anchor: start; font: 14px &quot;Source Code Pro&quot;,monospace;"><tspan dy="4.5">#fcc</tspan></text><rect style="" stroke="none" fill="#ffdddd" ry="0" rx="0" r="0" height="24" width="18" y="0" x="234"></rect><text transform="matrix(0,1,-1,0,288,-202)" font-size="14px" font-family="&quot;Source Code Pro&quot;,monospace" fill="#000000" stroke="none" font="10px &quot;Arial&quot;" text-anchor="start" y="44" x="229" style="text-anchor: start; font: 14px &quot;Source Code Pro&quot;,monospace;"><tspan dy="4.5">#fdd</tspan></text><rect style="" stroke="none" fill="#ffeeee" ry="0" rx="0" r="0" height="24" width="18" y="0" x="252"></rect><text transform="matrix(0,1,-1,0,306,-220)" font-size="14px" font-family="&quot;Source Code Pro&quot;,monospace" fill="#000000" stroke="none" font="10px &quot;Arial&quot;" text-anchor="start" y="44" x="247" style="text-anchor: start; font: 14px &quot;Source Code Pro&quot;,monospace;"><tspan dy="4.5">#fee</tspan></text><rect style="" stroke="none" fill="#ffffff" ry="0" rx="0" r="0" height="24" width="18" y="0" x="270"></rect><text transform="matrix(0,1,-1,0,324,-238)" font-size="14px" font-family="&quot;Source Code Pro&quot;,monospace" fill="#000000" stroke="none" font="10px &quot;Arial&quot;" text-anchor="start" y="44" x="265" style="text-anchor: start; font: 14px &quot;Source Code Pro&quot;,monospace;"><tspan dy="4.5">#fff</tspan></text></svg>
