<svg style="overflow: hidden; position: relative; top: -0.866638px;" xmlns="http://www.w3.org/2000/svg" width="400" version="1.1" height="200"><desc>Created with Raphaël 2.1.2</desc><defs></defs><circle stroke-width="2" style="" stroke="#cc5500" fill="none" r="7" cy="45" cx="100"></circle><rect transform="matrix(2.7462,0.1439,-0.1439,2.7462,-454.2116,-248.4072)" stroke-width="0.5454545454545454" style="" stroke="#000" fill="#229922" ry="0" rx="0" r="0" height="40" width="40" y="100" x="250"></rect><circle stroke-width="2" style="" stroke="#cc5500" fill="none" r="14" cy="50" cx="100"></circle><rect transform="matrix(2.4863,0.2613,-0.2613,2.4863,-369.9437,-248.9133)" stroke-width="0.6" style="" stroke="#000" fill="#229922" ry="0" rx="0" r="0" height="40" width="40" y="100" x="250"></rect><circle stroke-width="2" style="" stroke="#cc5500" fill="none" r="21" cy="55" cx="100"></circle><rect transform="matrix(2.2223,0.352,-0.352,2.2223,-287.7834,-241.7098)" stroke-width="0.6666666666666666" style="" stroke="#000" fill="#229922" ry="0" rx="0" r="0" height="40" width="40" y="100" x="250"></rect><circle stroke-width="2" style="" stroke="#cc5500" fill="none" r="28" cy="60" cx="100"></circle><rect transform="matrix(1.9563,0.4158,-0.4158,1.9563,-208.3009,-227.0277)" stroke-width="0.75" style="" stroke="#000" fill="#229922" ry="0" rx="0" r="0" height="40" width="40" y="100" x="250"></rect><circle stroke-width="2" style="" stroke="#cc5500" fill="none" r="35" cy="65" cx="100"></circle><rect transform="matrix(1.6904,0.4529,-0.4529,1.6904,-132.048,-205.1364)" stroke-width="0.8571428571428571" style="" stroke="#000" fill="#229922" ry="0" rx="0" r="0" height="40" width="40" y="100" x="250"></rect><circle stroke-width="2" style="" stroke="#cc5500" fill="none" r="42" cy="70" cx="100"></circle><rect transform="matrix(1.4266,0.4635,-0.4635,1.4266,-59.5548,-176.3421)" stroke-width="1" style="" stroke="#000" fill="#229922" ry="0" rx="0" r="0" height="40" width="40" y="100" x="250"></rect><circle stroke-width="2" style="" stroke="#cc5500" fill="none" r="49" cy="75" cx="100"></circle><rect transform="matrix(1.167,0.448,-0.448,1.167,8.6718,-140.9862)" stroke-width="1.2" style="" stroke="#000" fill="#229922" ry="0" rx="0" r="0" height="40" width="40" y="100" x="250"></rect><circle stroke-width="2" style="" stroke="#cc5500" fill="none" r="56" cy="80" cx="100"></circle><rect transform="matrix(0.9135,0.4067,-0.4067,0.9135,72.1511,-99.4443)" stroke-width="1.5" style="" stroke="#000" fill="#229922" ry="0" rx="0" r="0" height="40" width="40" y="100" x="250"></rect><circle stroke-width="2" style="" stroke="#cc5500" fill="none" r="63" cy="85" cx="100"></circle><rect transform="matrix(0.6683,0.3405,-0.3405,0.6683,130.4303,-52.1237)" stroke-width="2" style="" stroke="#000" fill="#229922" ry="0" rx="0" r="0" height="40" width="40" y="100" x="250"></rect><circle stroke-width="2" style="" stroke="#cc5500" fill="none" r="70" cy="90" cx="100"></circle><rect transform="matrix(0.433,0.25,-0.25,0.433,183.0866,0.5385)" stroke-width="3" style="" stroke="#000" fill="#229922" ry="0" rx="0" r="0" height="40" width="40" y="100" x="250"></rect><circle stroke-width="2" style="" stroke="#cc5500" fill="none" r="77" cy="95" cx="100"></circle><rect transform="matrix(0.2097,0.1362,-0.1362,0.2097,229.7289,58.0767)" stroke-width="6" style="" stroke="#000" fill="#229922" ry="0" rx="0" r="0" height="40" width="40" y="100" x="250"></rect><circle stroke-width="2" style="" stroke="#cc5500" fill="none" r="84" cy="100" cx="100"></circle><rect transform="matrix(0,0,0,0,270,120)" stroke-width="1.5" style="" stroke="#000" fill="#229922" ry="0" rx="0" r="0" height="40" width="40" y="100" x="250"></rect></svg>
