<svg style="overflow: hidden; position: relative; top: -0.866669px;" xmlns="http://www.w3.org/2000/svg" width="350" version="1.1" height="120"><desc>Created with Raphaël 2.1.2</desc><defs></defs><rect style="" stroke="#000" fill="#000000" ry="0" rx="0" r="0" height="30" width="30" y="0" x="0"></rect><rect style="" stroke="#000" fill="#110000" ry="0" rx="0" r="0" height="30" width="30" y="5" x="20"></rect><rect style="" stroke="#000" fill="#220000" ry="0" rx="0" r="0" height="30" width="30" y="10" x="40"></rect><rect style="" stroke="#000" fill="#330000" ry="0" rx="0" r="0" height="30" width="30" y="15" x="60"></rect><rect style="" stroke="#000" fill="#440000" ry="0" rx="0" r="0" height="30" width="30" y="20" x="80"></rect><rect style="" stroke="#000" fill="#550000" ry="0" rx="0" r="0" height="30" width="30" y="25" x="100"></rect><rect style="" stroke="#000" fill="#660000" ry="0" rx="0" r="0" height="30" width="30" y="30" x="120"></rect><rect style="" stroke="#000" fill="#770000" ry="0" rx="0" r="0" height="30" width="30" y="35" x="140"></rect><rect style="" stroke="#000" fill="#880000" ry="0" rx="0" r="0" height="30" width="30" y="40" x="160"></rect><rect style="" stroke="#000" fill="#990000" ry="0" rx="0" r="0" height="30" width="30" y="45" x="180"></rect><rect style="" stroke="#000" fill="#aa0000" ry="0" rx="0" r="0" height="30" width="30" y="50" x="200"></rect><rect style="" stroke="#000" fill="#bb0000" ry="0" rx="0" r="0" height="30" width="30" y="55" x="220"></rect><rect style="" stroke="#000" fill="#cc0000" ry="0" rx="0" r="0" height="30" width="30" y="60" x="240"></rect><rect style="" stroke="#000" fill="#dd0000" ry="0" rx="0" r="0" height="30" width="30" y="65" x="260"></rect><rect style="" stroke="#000" fill="#ee0000" ry="0" rx="0" r="0" height="30" width="30" y="70" x="280"></rect><rect style="" stroke="#000" fill="#ff0000" ry="0" rx="0" r="0" height="30" width="30" y="75" x="300"></rect></svg>
