<svg style="overflow: hidden; position: relative; top: -0.866669px;" xmlns="http://www.w3.org/2000/svg" width="150" version="1.1" height="150"><desc>Created with Raphaël 2.1.2</desc><defs></defs><rect transform="matrix(0.9659,0.2588,-0.2588,0.9659,21.967,-16.8559)" style="" stroke="#000" fill="none" ry="0" rx="0" r="0" height="90" width="90" y="30" x="30"></rect><rect transform="matrix(0.866,0.5,-0.5,0.866,47.5481,-27.4519)" style="" stroke="#000" fill="none" ry="0" rx="0" r="0" height="90" width="90" y="30" x="30"></rect><rect transform="matrix(0.7071,0.7071,-0.7071,0.7071,75,-31.066)" style="" stroke="#000" fill="none" ry="0" rx="0" r="0" height="90" width="90" y="30" x="30"></rect><rect transform="matrix(0.5,0.866,-0.866,0.5,102.4519,-27.4519)" style="" stroke="#000" fill="none" ry="0" rx="0" r="0" height="90" width="90" y="30" x="30"></rect><rect transform="matrix(0.2588,0.9659,-0.9659,0.2588,128.033,-16.8559)" style="" stroke="#000" fill="none" ry="0" rx="0" r="0" height="90" width="90" y="30" x="30"></rect><rect transform="matrix(0,1,-1,0,150,0)" style="" stroke="#000" fill="none" ry="0" rx="0" r="0" height="90" width="90" y="30" x="30"></rect></svg>
