<svg style="overflow: hidden; position: relative; top: -0.866669px;" xmlns="http://www.w3.org/2000/svg" width="400" version="1.1" height="270"><desc>Created with Raphaël 2.1.2</desc><defs></defs><path stroke-width="3" d="M50,20L390,30" stroke="#ff0000" fill="none" style=""></path><path stroke-width="3" d="M50,40L260,10L280,40L390,40" stroke="#00cc00" fill="none" style=""></path><path stroke-width="3" d="M50,60L260,30L280,60Z" stroke="#0000dd" fill="none" style=""></path><path stroke-width="3" d="M50,80T150,80T150,100T390,80" stroke="#ff7700" fill="none" style=""></path><circle style="" stroke="#000" fill="#ff7700" r="3" cy="80" cx="150"></circle><circle style="" stroke="#000" fill="#ff7700" r="3" cy="100" cx="150"></circle><path stroke-width="3" d="M50,120Q150,180,150,120" stroke="#aa00ff" fill="none" style=""></path><circle style="" stroke="#000" fill="#aa00ff" r="3" cy="180" cx="150"></circle><path stroke-width="3" d="M200,120Q380,170,300,120" stroke="#cccc00" fill="none" style=""></path><circle style="" stroke="#000" fill="#cccc00" r="3" cy="170" cx="380"></circle><path stroke-width="3" d="M50,220L180,260Q220,260,220,220Q350,220,300,240Z" stroke="#000000" fill="none" style=""></path><text fill="#000000" stroke="none" font="10px &quot;Arial&quot;" text-anchor="middle" y="20" x="30" style="text-anchor: middle; font: 10px &quot;Arial&quot;;"><tspan dy="3.5">p1</tspan></text><text fill="#000000" stroke="none" font="10px &quot;Arial&quot;" text-anchor="middle" y="40" x="30" style="text-anchor: middle; font: 10px &quot;Arial&quot;;"><tspan dy="3.5">p2</tspan></text><text fill="#000000" stroke="none" font="10px &quot;Arial&quot;" text-anchor="middle" y="60" x="30" style="text-anchor: middle; font: 10px &quot;Arial&quot;;"><tspan dy="3.5">p3</tspan></text><text fill="#000000" stroke="none" font="10px &quot;Arial&quot;" text-anchor="middle" y="80" x="30" style="text-anchor: middle; font: 10px &quot;Arial&quot;;"><tspan dy="3.5">p4</tspan></text><text fill="#000000" stroke="none" font="10px &quot;Arial&quot;" text-anchor="middle" y="120" x="30" style="text-anchor: middle; font: 10px &quot;Arial&quot;;"><tspan dy="3.5">p5</tspan></text><text fill="#000000" stroke="none" font="10px &quot;Arial&quot;" text-anchor="middle" y="120" x="180" style="text-anchor: middle; font: 10px &quot;Arial&quot;;"><tspan dy="3.5">p6</tspan></text><text fill="#000000" stroke="none" font="10px &quot;Arial&quot;" text-anchor="middle" y="220" x="30" style="text-anchor: middle; font: 10px &quot;Arial&quot;;"><tspan dy="3.5">p7</tspan></text></svg>
