<?xml version="1.0" encoding="UTF-8" standalone="no"?>
<!-- Created with Inkscape (http://www.inkscape.org/) -->

<svg
   xmlns:dc="http://purl.org/dc/elements/1.1/"
   xmlns:cc="http://creativecommons.org/ns#"
   xmlns:rdf="http://www.w3.org/1999/02/22-rdf-syntax-ns#"
   xmlns:svg="http://www.w3.org/2000/svg"
   xmlns="http://www.w3.org/2000/svg"
   xmlns:xlink="http://www.w3.org/1999/xlink"
   xmlns:sodipodi="http://sodipodi.sourceforge.net/DTD/sodipodi-0.dtd"
   xmlns:inkscape="http://www.inkscape.org/namespaces/inkscape"
   version="1.1"
   width="227.64468"
   height="227.64343"
   id="svg2"
   inkscape:version="0.48.5 r10040"
   sodipodi:docname="phone-icon.svg">
  <metadata
     id="metadata17">
    <rdf:RDF>
      <cc:Work
         rdf:about="">
        <dc:format>image/svg+xml</dc:format>
        <dc:type
           rdf:resource="http://purl.org/dc/dcmitype/StillImage" />
      </cc:Work>
    </rdf:RDF>
  </metadata>
  <sodipodi:namedview
     pagecolor="#ffffff"
     bordercolor="#666666"
     borderopacity="1"
     objecttolerance="10"
     gridtolerance="10"
     guidetolerance="10"
     inkscape:pageopacity="0"
     inkscape:pageshadow="2"
     inkscape:window-width="1024"
     inkscape:window-height="576"
     id="namedview15"
     showgrid="false"
     inkscape:zoom="0.32684265"
     inkscape:cx="362.0402"
     inkscape:cy="362.02599"
     inkscape:window-x="0"
     inkscape:window-y="24"
     inkscape:window-maximized="1"
     inkscape:current-layer="svg2"
     fit-margin-top="1"
     fit-margin-left="1"
     fit-margin-right="1"
     fit-margin-bottom="1" />
  <title
     id="title4">phone mine</title>
  <defs
     id="defs6">
    <radialGradient
       cx="372.42999"
       cy="461.26001"
       r="361.03"
       id="svg_7"
       gradientUnits="userSpaceOnUse">
      <stop
         id="stop34"
         style="stop-color:#3f6894;stop-opacity:1"
         offset="0" />
      <stop
         id="stop36"
         style="stop-color:#062749;stop-opacity:0.99609399"
         offset="1" />
    </radialGradient>
    <radialGradient
       cx="372.42999"
       cy="461.26001"
       r="361.03"
       id="radialGradient2898"
       xlink:href="#svg_7"
       gradientUnits="userSpaceOnUse"
       gradientTransform="translate(-11.3982,-100.234)" />
  </defs>
  <g
     id="g2901"
     transform="matrix(0.3125,0,0,0.3125,1.0031875,1.0009375)">
    <path
       d="m 86.2118,14.536 c -39.453,0 -71.599,32.147 -71.599,71.673 v 549.49 c 0,39.526 32.147,71.672 71.599,71.672 h 549.63 c 39.453,0 71.599,-32.147 71.599,-71.672 V 86.209 c 0,-39.526 -32.147,-71.673 -71.599,-71.673 h -549.63 z"
       id="path6906"
       style="fill:#ffffff;fill-rule:nonzero"
       inkscape:connector-curvature="0" />
    <path
       d="m 635.8418,722.056 c 47.562,0 86.211,-38.649 86.211,-86.357 V 86.209 c 0,-47.709 -38.649,-86.212 -86.211,-86.212 h -549.64 c -47.562,0 -86.212,38.503 -86.212,86.212 v 549.49 c 0,47.708 38.65,86.357 86.212,86.357 h 549.64 z"
       id="path6908"
       style="fill:url(#radialGradient2898);fill-rule:nonzero"
       inkscape:connector-curvature="0" />
    <path
       d="m 159.96635,140.09045 c -20.88989,20.5733 -73.702831,124.3641 78.90235,321.87282 160.84212,208.13493 283.24291,181.75588 305.94434,163.00204 L 436.90909,488.88442 c -19.00525,15.07002 -39.27413,-2.61161 -77.48804,-41.86844 -25.2293,-26.05497 -53.78996,-60.1925 -77.67071,-97.95285 -16.60158,-26.46404 -31.02052,-53.81904 -11.09866,-69.61588 L 159.9554,140.07999 l -1e-5,-1e-5 z"
       id="path6910"
       style="fill:#ffffff;fill-rule:nonzero"
       inkscape:connector-curvature="0" />
    <path
       d="m 598.40388,580.12486 c 8.86856,-7.04303 9.42453,-19.14725 3.01832,-27.21392 l 0.0236,-0.20529 c 0,0 -84.22034,-105.815 -84.30741,-105.92463 -6.67922,-8.41045 -18.71259,-9.58328 -27.00878,-2.99479 l -38.56198,30.62428 108.27299,136.33697 c 0,0 38.53848,-30.41911 38.44765,-30.53349 l 0.11442,-0.0909 z"
       id="path6912"
       style="fill:#ffffff;fill-rule:nonzero"
       inkscape:connector-curvature="0" />
    <path
       d="m 325.90176,234.98363 c 8.82893,-7.09265 9.31701,-19.19979 2.86567,-27.23041 l 0.11389,-0.0915 c 0,0 -87.32376,-108.467245 -87.4177,-108.584185 -6.72628,-8.372861 -18.76604,-9.478187 -27.02515,-2.843285 l -38.38965,30.84004 111.4658,138.7525 38.36734,-30.63469 0.0224,-0.20541 z"
       id="path6914"
       style="fill:#ffffff;fill-rule:nonzero"
       inkscape:connector-curvature="0" />
  </g>
</svg>
