<?xml version="1.0" encoding="UTF-8" standalone="no"?>
<!-- Created with Inkscape (http://www.inkscape.org/) -->

<svg
   xmlns:dc="http://purl.org/dc/elements/1.1/"
   xmlns:cc="http://creativecommons.org/ns#"
   xmlns:rdf="http://www.w3.org/1999/02/22-rdf-syntax-ns#"
   xmlns:svg="http://www.w3.org/2000/svg"
   xmlns="http://www.w3.org/2000/svg"
   xmlns:sodipodi="http://sodipodi.sourceforge.net/DTD/sodipodi-0.dtd"
   xmlns:inkscape="http://www.inkscape.org/namespaces/inkscape"
   width="333"
   height="41.958004"
   id="svg2"
   version="1.1"
   inkscape:version="0.48.4 r9939"
   sodipodi:docname="url.svg">
  <defs
     id="defs4" />
  <sodipodi:namedview
     id="base"
     pagecolor="#ffffff"
     bordercolor="#666666"
     borderopacity="1.0"
     inkscape:pageopacity="0.0"
     inkscape:pageshadow="2"
     inkscape:zoom="5.2781955"
     inkscape:cx="167.25"
     inkscape:cy="10.389001"
     inkscape:document-units="px"
     inkscape:current-layer="layer1"
     showgrid="true"
     inkscape:window-width="1920"
     inkscape:window-height="1056"
     inkscape:window-x="0"
     inkscape:window-y="24"
     inkscape:window-maximized="1"
     fit-margin-top="1"
     fit-margin-left="1"
     fit-margin-right="1"
     fit-margin-bottom="1">
    <inkscape:grid
       type="xygrid"
       id="grid3043"
       empspacing="2"
       visible="true"
       enabled="true"
       snapvisiblegridlinesonly="true"
       spacingx="1px"
       spacingy="1px"
       dotted="false"
       empcolor="#f500ff"
       empopacity="0.25098039"
       originx="-106.5px"
       originy="-888.13px" />
  </sodipodi:namedview>
  <metadata
     id="metadata7">
    <rdf:RDF>
      <cc:Work
         rdf:about="">
        <dc:format>image/svg+xml</dc:format>
        <dc:type
           rdf:resource="http://purl.org/dc/dcmitype/StillImage" />
        <dc:title />
      </cc:Work>
    </rdf:RDF>
  </metadata>
  <g
     inkscape:label="Layer 1"
     inkscape:groupmode="layer"
     id="layer1"
     transform="translate(-106.5,-122.27418)">
    <path
       style="fill:none;stroke:#000000;stroke-width:1px;stroke-linecap:butt;stroke-linejoin:miter;stroke-opacity:1"
       d="m 108,143.36218 0,6 57,0 0,-6"
       id="path3045"
       inkscape:connector-curvature="0"
       sodipodi:nodetypes="cccc" />
    <path
       style="fill:none;stroke:#000000;stroke-width:1px;stroke-linecap:butt;stroke-linejoin:miter;stroke-opacity:1"
       d="m 207,143.36218 0,6 147,0 0,-6"
       id="path3047"
       inkscape:connector-curvature="0"
       sodipodi:nodetypes="cccc" />
    <path
       style="fill:none;stroke:#000000;stroke-width:1px;stroke-linecap:butt;stroke-linejoin:miter;stroke-opacity:1"
       d="m 354,149.36218 84,0 0,-6"
       id="path3049"
       inkscape:connector-curvature="0"
       sodipodi:nodetypes="ccc" />
    <text
       xml:space="preserve"
       style="font-size:14px;font-style:normal;font-variant:normal;font-weight:normal;font-stretch:normal;text-align:start;line-height:125%;letter-spacing:0px;word-spacing:0px;writing-mode:lr-tb;text-anchor:start;fill:#000000;fill-opacity:1;stroke:none;font-family:Source Sans Pro;-inkscape-font-specification:Source Sans Pro"
       x="116"
       y="160.36218"
       id="text3121"
       sodipodi:linespacing="125%"><tspan
         sodipodi:role="line"
         id="tspan3123"
         x="116"
         y="160.36218">scheme</tspan></text>
    <text
       xml:space="preserve"
       style="font-size:14px;font-style:normal;font-variant:normal;font-weight:normal;font-stretch:normal;text-align:start;line-height:125%;letter-spacing:0px;word-spacing:0px;writing-mode:lr-tb;text-anchor:start;fill:#000000;fill-opacity:1;stroke:none;font-family:Source Sans Pro;-inkscape-font-specification:Source Sans Pro"
       x="270"
       y="160.36218"
       id="text3125"
       sodipodi:linespacing="125%"><tspan
         sodipodi:role="line"
         id="tspan3127"
         x="270"
         y="160.36218">server</tspan></text>
    <text
       xml:space="preserve"
       style="font-size:14px;font-style:normal;font-variant:normal;font-weight:normal;font-stretch:normal;text-align:start;line-height:125%;letter-spacing:0px;word-spacing:0px;writing-mode:lr-tb;text-anchor:start;fill:#000000;fill-opacity:1;stroke:none;font-family:Source Sans Pro;-inkscape-font-specification:Source Sans Pro"
       x="386"
       y="160.36218"
       id="text3129"
       sodipodi:linespacing="125%"><tspan
         sodipodi:role="line"
         id="tspan3131"
         x="386"
         y="160.36218">path</tspan></text>
    <g
       style="font-size:24px;font-style:normal;font-variant:normal;font-weight:normal;font-stretch:normal;text-align:start;line-height:125%;letter-spacing:0px;word-spacing:0px;writing-mode:lr-tb;text-anchor:start;fill:#000000;fill-opacity:1;stroke:none;font-family:Source Code Pro;-inkscape-font-specification:Source Code Pro"
       id="text3016">
      <path
         d="m 110.232,123.27418 1.968,0 0,4.656 -0.096,2.76 c 0.624,-0.65599 1.28799,-1.19999 1.992,-1.632 0.70399,-0.43199 1.51199,-0.64799 2.424,-0.648 1.39199,1e-5 2.40799,0.40001 3.048,1.2 0.65599,0.78401 0.98399,1.95201 0.984,3.504 l 0,7.248 -1.968,0 0,-6.984 c -1e-5,-1.10399 -0.20801,-1.91999 -0.624,-2.448 -0.41601,-0.54399 -1.10401,-0.81599 -2.064,-0.816 -0.35201,1e-5 -0.68001,0.048 -0.984,0.144 -0.28801,0.08 -0.57601,0.20801 -0.864,0.384 -0.28801,0.17601 -0.58401,0.40001 -0.888,0.672 -0.304,0.25601 -0.624,0.56001 -0.96,0.912 l 0,8.136 -1.968,0 0,-17.088"
         id="path3021"
         inkscape:connector-curvature="0" />
      <path
         d="m 127.33463,130.30618 -3.288,0 0,-1.488 3.36,-0.12 0.264,-3.264 1.63199,0 0,3.264 5.736,0 0,1.608 -5.736,0 0,5.544 c 0,0.52801 0.048,0.99201 0.144,1.392 0.096,0.38401 0.256,0.71201 0.48,0.984 0.224,0.272 0.528,0.48 0.912,0.624 0.384,0.128 0.856,0.192 1.416,0.192 0.55999,0 1.06399,-0.048 1.512,-0.144 0.44799,-0.096 0.87999,-0.224 1.296,-0.384 l 0.43201,1.44 c -0.52802,0.192 -1.11202,0.352 -1.75201,0.48 -0.64001,0.144 -1.28001,0.216 -1.92,0.216 -0.848,0 -1.56,-0.112 -2.136,-0.336 -0.576,-0.24 -1.04,-0.568 -1.392,-0.984 -0.336,-0.432 -0.584,-0.944 -0.744,-1.536 -0.144,-0.59199 -0.216,-1.24799 -0.21599,-1.968 l 0,-5.52"
         id="path3023"
         inkscape:connector-curvature="0" />
      <path
         d="m 141.72525,130.30618 -3.288,0 0,-1.488 3.36,-0.12 0.264,-3.264 1.632,0 0,3.264 5.736,0 0,1.608 -5.736,0 0,5.544 c -1e-5,0.52801 0.048,0.99201 0.144,1.392 0.096,0.38401 0.25599,0.71201 0.48,0.984 0.22399,0.272 0.52799,0.48 0.912,0.624 0.38399,0.128 0.85599,0.192 1.416,0.192 0.55999,0 1.06399,-0.048 1.512,-0.144 0.44799,-0.096 0.87999,-0.224 1.296,-0.384 l 0.432,1.44 c -0.52801,0.192 -1.11201,0.352 -1.752,0.48 -0.64001,0.144 -1.28001,0.216 -1.92,0.216 -0.84801,0 -1.56001,-0.112 -2.136,-0.336 -0.57601,-0.24 -1.04001,-0.568 -1.392,-0.984 -0.33601,-0.432 -0.58401,-0.944 -0.744,-1.536 -0.14401,-0.59199 -0.216,-1.24799 -0.216,-1.968 l 0,-5.52"
         id="path3025"
         inkscape:connector-curvature="0" />
      <path
         d="m 155.37187,141.34618 0,3.936 -1.968,0 0,-16.584 1.632,0 0.168,1.488 0.072,0 c 0.54399,-0.51199 1.16799,-0.93599 1.87199,-1.272 0.72,-0.33599 1.44,-0.50399 2.16,-0.504 0.784,1e-5 1.472,0.14401 2.064,0.432 0.60799,0.27201 1.11199,0.67201 1.512,1.2 0.41599,0.51201 0.72799,1.13601 0.936,1.872 0.20799,0.72001 0.31199,1.53601 0.312,2.448 -1e-5,0.99201 -0.14401,1.88001 -0.432,2.664 -0.28801,0.76801 -0.68001,1.424 -1.176,1.968 -0.48001,0.544 -1.04001,0.96 -1.68,1.248 -0.64,0.272 -1.312,0.408 -2.016,0.408 -0.544,0 -1.136,-0.128 -1.776,-0.384 -0.624,-0.272 -1.2,-0.648 -1.728,-1.128 l 0.048,2.208 m 0,-3.72 c 0.56,0.496 1.12,0.848 1.68,1.056 0.56,0.208 1.04,0.312 1.44,0.312 1.056,0 1.92,-0.408 2.592,-1.224 0.67199,-0.81599 1.00799,-1.95199 1.008,-3.408 -1e-5,-0.63999 -0.064,-1.22399 -0.192,-1.752 -0.12801,-0.52799 -0.32801,-0.97599 -0.6,-1.344 -0.256,-0.38399 -0.592,-0.67999 -1.008,-0.888 -0.416,-0.20799 -0.912,-0.31199 -1.488,-0.312 -0.512,1e-5 -1.064,0.14401 -1.656,0.432 -0.576,0.27201 -1.168,0.71201 -1.776,1.32 l 0,5.808"
         id="path3027"
         inkscape:connector-curvature="0" />
      <path
         d="m 170.8185,130.04218 c -1e-5,-0.60799 0.18399,-1.09599 0.552,-1.464 0.38399,-0.38399 0.84799,-0.57599 1.392,-0.576 0.54399,1e-5 0.99999,0.19201 1.368,0.576 0.38399,0.36801 0.57599,0.85601 0.576,1.464 -1e-5,0.60801 -0.19201,1.09601 -0.576,1.464 -0.36801,0.36801 -0.82401,0.55201 -1.368,0.552 -0.54401,1e-5 -1.00801,-0.18399 -1.392,-0.552 -0.36801,-0.36799 -0.55201,-0.85599 -0.552,-1.464 m 0,8.592 c -1e-5,-0.608 0.18399,-1.09599 0.552,-1.464 0.38399,-0.38399 0.84799,-0.57599 1.392,-0.576 0.54399,1e-5 0.99999,0.19201 1.368,0.576 0.38399,0.36801 0.57599,0.856 0.576,1.464 -1e-5,0.608 -0.19201,1.096 -0.576,1.464 -0.36801,0.368 -0.82401,0.552 -1.368,0.552 -0.54401,0 -1.00801,-0.184 -1.392,-0.552 -0.36801,-0.368 -0.55201,-0.856 -0.552,-1.464"
         id="path3029"
         inkscape:connector-curvature="0" />
      <path
         d="m 184.10512,144.20218 -1.776,0 7.872,-20.88 1.776,0 -7.872,20.88"
         id="path3031"
         inkscape:connector-curvature="0" />
      <path
         d="m 198.49575,144.20218 -1.776,0 7.872,-20.88 1.776,0 -7.872,20.88"
         id="path3033"
         inkscape:connector-curvature="0" />
      <path
         d="m 208.92637,128.69818 2.016,0 1.416,6.744 c 0.112,0.56001 0.216,1.10401 0.312,1.632 0.096,0.52801 0.184,1.064 0.264,1.608 l 0.096,0 c 0.112,-0.544 0.224,-1.07999 0.336,-1.608 0.112,-0.54399 0.232,-1.08799 0.36,-1.632 l 1.416,-6.048 1.68,0 1.44,6.048 c 0.128,0.56001 0.248,1.10401 0.36,1.632 0.11199,0.52801 0.23199,1.064 0.36,1.608 l 0.096,0 c 0.11199,-0.544 0.20799,-1.07999 0.288,-1.608 0.096,-0.52799 0.19199,-1.07199 0.288,-1.632 l 1.41601,-6.744 1.87199,0 -2.544,11.664 -2.376,0 -1.39199,-5.904 c -0.11201,-0.55999 -0.21601,-1.11199 -0.31201,-1.656 -0.096,-0.55999 -0.208,-1.13599 -0.336,-1.728 l -0.096,0 c -0.096,0.51201 -0.192,1.04001 -0.288,1.584 -0.096,0.54401 -0.216,1.15201 -0.36,1.824 l -1.344,5.88 -2.352,0 -2.616,-11.664"
         id="path3035"
         inkscape:connector-curvature="0" />
      <path
         d="m 223.317,128.69818 2.016,0 1.416,6.744 c 0.112,0.56001 0.216,1.10401 0.312,1.632 0.096,0.52801 0.184,1.064 0.264,1.608 l 0.096,0 c 0.112,-0.544 0.224,-1.07999 0.336,-1.608 0.112,-0.54399 0.232,-1.08799 0.36,-1.632 l 1.416,-6.048 1.68,0 1.44,6.048 c 0.12799,0.56001 0.24799,1.10401 0.36,1.632 0.11199,0.52801 0.23199,1.064 0.36,1.608 l 0.096,0 c 0.11199,-0.544 0.20799,-1.07999 0.288,-1.608 0.096,-0.52799 0.19199,-1.07199 0.288,-1.632 l 1.416,-6.744 1.872,0 -2.544,11.664 -2.376,0 -1.392,-5.904 c -0.11201,-0.55999 -0.21601,-1.11199 -0.312,-1.656 -0.096,-0.55999 -0.20801,-1.13599 -0.336,-1.728 l -0.096,0 c -0.096,0.51201 -0.19201,1.04001 -0.288,1.584 -0.096,0.54401 -0.21601,1.15201 -0.36,1.824 l -1.344,5.88 -2.352,0 -2.616,-11.664"
         id="path3037"
         inkscape:connector-curvature="0" />
      <path
         d="m 237.70762,128.69818 2.016,0 1.416,6.744 c 0.112,0.56001 0.216,1.10401 0.312,1.632 0.096,0.52801 0.184,1.064 0.264,1.608 l 0.096,0 c 0.112,-0.544 0.224,-1.07999 0.336,-1.608 0.112,-0.54399 0.232,-1.08799 0.36,-1.632 l 1.416,-6.048 1.68,0 1.44,6.048 c 0.128,0.56001 0.248,1.10401 0.36,1.632 0.11199,0.52801 0.23199,1.064 0.36,1.608 l 0.096,0 c 0.11199,-0.544 0.20799,-1.07999 0.288,-1.608 0.096,-0.52799 0.19199,-1.07199 0.288,-1.632 l 1.41601,-6.744 1.87199,0 -2.544,11.664 -2.376,0 -1.39199,-5.904 c -0.11201,-0.55999 -0.21601,-1.11199 -0.31201,-1.656 -0.096,-0.55999 -0.208,-1.13599 -0.336,-1.728 l -0.096,0 c -0.096,0.51201 -0.192,1.04001 -0.288,1.584 -0.096,0.54401 -0.216,1.15201 -0.36,1.824 l -1.344,5.88 -2.352,0 -2.616,-11.664"
         id="path3039"
         inkscape:connector-curvature="0" />
      <path
         d="m 257.16225,138.63418 c -10e-6,-0.608 0.18399,-1.09599 0.552,-1.464 0.38399,-0.38399 0.84799,-0.57599 1.392,-0.576 0.54399,1e-5 0.99999,0.19201 1.368,0.576 0.38399,0.36801 0.57599,0.856 0.576,1.464 -1e-5,0.608 -0.19201,1.096 -0.576,1.464 -0.36801,0.368 -0.82401,0.552 -1.368,0.552 -0.54401,0 -1.00801,-0.184 -1.392,-0.552 -0.36801,-0.368 -0.55201,-0.856 -0.552,-1.464"
         id="path3041"
         inkscape:connector-curvature="0" />
      <path
         d="m 266.48887,128.69818 2.01601,0 1.416,6.744 c 0.11199,0.56001 0.21599,1.10401 0.31199,1.632 0.096,0.52801 0.184,1.064 0.264,1.608 l 0.096,0 c 0.112,-0.544 0.224,-1.07999 0.336,-1.608 0.112,-0.54399 0.232,-1.08799 0.36001,-1.632 l 1.416,-6.048 1.68,0 1.44,6.048 c 0.12799,0.56001 0.24799,1.10401 0.35999,1.632 0.112,0.52801 0.23199,1.064 0.36,1.608 l 0.096,0 c 0.11199,-0.544 0.20799,-1.07999 0.288,-1.608 0.096,-0.52799 0.19199,-1.07199 0.28801,-1.632 l 1.416,-6.744 1.87199,0 -2.544,11.664 -2.376,0 -1.39199,-5.904 c -0.11201,-0.55999 -0.21601,-1.11199 -0.31201,-1.656 -0.096,-0.55999 -0.208,-1.13599 -0.336,-1.728 l -0.096,0 c -0.096,0.51201 -0.192,1.04001 -0.288,1.584 -0.096,0.54401 -0.216,1.15201 -0.35999,1.824 l -1.344,5.88 -2.35201,0 -2.616,-11.664"
         id="path3043"
         inkscape:connector-curvature="0" />
      <path
         d="m 283.0635,137.19418 c 0.512,0.48001 1.12,0.904 1.824,1.272 0.72,0.368 1.57599,0.552 2.568,0.552 0.52799,0 1.01599,-0.064 1.464,-0.192 0.44799,-0.144 0.83199,-0.336 1.152,-0.576 0.33599,-0.24 0.59199,-0.52799 0.768,-0.864 0.19199,-0.35199 0.28799,-0.74399 0.288,-1.176 -10e-6,-0.44799 -0.10401,-0.85599 -0.312,-1.224 -0.19201,-0.38399 -0.51201,-0.71199 -0.96,-0.984 -0.44801,-0.27199 -1.02401,-0.47999 -1.728,-0.624 -0.70401,-0.14399 -1.56001,-0.21599 -2.568,-0.216 l 0,-1.512 c 0.91199,1e-5 1.67999,-0.072 2.304,-0.216 0.63999,-0.14399 1.15999,-0.34399 1.56,-0.6 0.39999,-0.25599 0.68799,-0.55999 0.864,-0.912 0.19199,-0.35199 0.28799,-0.72799 0.288,-1.128 -10e-6,-0.75199 -0.28801,-1.34398 -0.864,-1.776 -0.56001,-0.43198 -1.31201,-0.64798 -2.256,-0.648 -0.72001,2e-5 -1.40001,0.14402 -2.04,0.432 -0.64,0.28802 -1.216,0.66402 -1.728,1.128 l -1.056,-1.248 c 0.64,-0.55998 1.368,-1.01598 2.184,-1.368 0.816,-0.36798 1.71999,-0.55198 2.712,-0.552 0.71999,2e-5 1.38399,0.088 1.992,0.264 0.62399,0.17602 1.15999,0.43202 1.608,0.768 0.46399,0.32002 0.82399,0.72002 1.08,1.2 0.25599,0.48002 0.38399,1.03201 0.384,1.656 -10e-6,0.92801 -0.30401,1.68801 -0.912,2.28 -0.60801,0.59201 -1.39201,1.04801 -2.352,1.368 l 0,0.096 c 0.51199,0.11201 0.99199,0.28001 1.44,0.504 0.46399,0.20801 0.87199,0.48001 1.224,0.816 0.35199,0.32001 0.62399,0.69601 0.816,1.128 0.20799,0.43201 0.31199,0.91201 0.312,1.44 -1e-5,0.67201 -0.14401,1.28001 -0.432,1.824 -0.28801,0.544 -0.68801,1.008 -1.2,1.392 -0.49601,0.368 -1.08001,0.656 -1.752,0.864 -0.67201,0.192 -1.39201,0.288 -2.16,0.288 -1.32801,0 -2.44,-0.216 -3.336,-0.648 -0.896,-0.448 -1.624,-0.952 -2.184,-1.512 l 1.008,-1.296"
         id="path3046"
         inkscape:connector-curvature="0" />
      <path
         d="m 300.33412,138.63418 c 0,-0.608 0.184,-1.09599 0.552,-1.464 0.384,-0.38399 0.848,-0.57599 1.392,-0.576 0.544,1e-5 1,0.19201 1.368,0.576 0.384,0.36801 0.576,0.856 0.576,1.464 0,0.608 -0.192,1.096 -0.576,1.464 -0.368,0.368 -0.824,0.552 -1.368,0.552 -0.544,0 -1.008,-0.184 -1.392,-0.552 -0.368,-0.368 -0.552,-0.856 -0.552,-1.464"
         id="path3048"
         inkscape:connector-curvature="0" />
      <path
         d="m 310.90875,134.55418 c 0,-0.97599 0.152,-1.83999 0.456,-2.592 0.32,-0.76799 0.744,-1.41599 1.272,-1.944 0.528,-0.52799 1.136,-0.92799 1.824,-1.2 0.70399,-0.27199 1.43999,-0.40799 2.208,-0.408 0.76799,1e-5 1.49599,0.13601 2.184,0.408 0.70399,0.27201 1.31999,0.67201 1.848,1.2 0.52799,0.52801 0.94399,1.17601 1.248,1.944 0.31999,0.75201 0.47999,1.61601 0.48,2.592 -10e-6,0.96001 -0.16001,1.82401 -0.48,2.592 -0.30401,0.75201 -0.72001,1.392 -1.248,1.92 -0.52801,0.512 -1.14401,0.904 -1.848,1.176 -0.68801,0.272 -1.41601,0.408 -2.184,0.408 -0.76801,0 -1.50401,-0.136 -2.208,-0.408 -0.688,-0.272 -1.296,-0.664 -1.824,-1.176 -0.528,-0.528 -0.952,-1.16799 -1.272,-1.92 -0.304,-0.76799 -0.456,-1.63199 -0.456,-2.592 m 2.04,0 c 0,0.67201 0.088,1.28001 0.264,1.824 0.176,0.54401 0.424,1.01601 0.744,1.416 0.336,0.384 0.72799,0.688 1.176,0.912 0.46399,0.208 0.97599,0.312 1.536,0.312 0.55999,0 1.06399,-0.104 1.512,-0.312 0.46399,-0.224 0.85599,-0.528 1.176,-0.912 0.33599,-0.39999 0.59199,-0.87199 0.768,-1.416 0.17599,-0.54399 0.26399,-1.15199 0.264,-1.824 -1e-5,-0.67199 -0.088,-1.27999 -0.264,-1.824 -0.17601,-0.55999 -0.43201,-1.03999 -0.768,-1.44 -0.32001,-0.39999 -0.71201,-0.70399 -1.176,-0.912 -0.44801,-0.22399 -0.95201,-0.33599 -1.512,-0.336 -0.56001,1e-5 -1.07201,0.11201 -1.536,0.336 -0.44801,0.20801 -0.84,0.51201 -1.176,0.912 -0.32,0.40001 -0.568,0.88001 -0.744,1.44 -0.176,0.54401 -0.264,1.15201 -0.264,1.824"
         id="path3050"
         inkscape:connector-curvature="0" />
      <path
         d="m 327.36338,128.69818 1.632,0 0.16799,2.76 0.072,0 c 0.608,-0.94399 1.352,-1.68799 2.232,-2.232 0.896,-0.54399 1.888,-0.81599 2.976,-0.816 0.43199,1e-5 0.83199,0.04 1.2,0.12 0.36799,0.064 0.73599,0.18401 1.104,0.36 l -0.45599,1.704 c -0.41602,-0.14399 -0.76802,-0.24799 -1.05601,-0.312 -0.27201,-0.064 -0.64001,-0.096 -1.104,-0.096 -0.88,1e-5 -1.728,0.25601 -2.544,0.768 -0.8,0.49601 -1.552,1.35201 -2.256,2.568 l 0,6.84 -1.96799,0 0,-11.664"
         id="path3052"
         inkscape:connector-curvature="0" />
      <path
         d="m 341.682,142.30618 c 0,0.608 0.32,1.104 0.96,1.488 0.65599,0.384 1.60799,0.576 2.856,0.576 0.67199,0 1.27999,-0.072 1.824,-0.216 0.54399,-0.128 1.00799,-0.304 1.392,-0.528 0.38399,-0.224 0.67199,-0.48 0.864,-0.768 0.20799,-0.288 0.31199,-0.584 0.312,-0.888 -10e-6,-0.56 -0.22401,-0.936 -0.672,-1.128 -0.43201,-0.192 -1.09601,-0.288 -1.992,-0.288 l -2.28,0 c -0.33601,0 -0.65601,-0.016 -0.96,-0.048 -0.28801,-0.016 -0.56001,-0.064 -0.816,-0.144 -0.56,0.304 -0.952,0.616 -1.176,0.936 -0.208,0.336 -0.312,0.672 -0.312,1.008 m -1.704,0.192 c 0,-0.464 0.16,-0.92 0.48,-1.368 0.336,-0.448 0.816,-0.856 1.44,-1.224 l 0,-0.096 c -0.32,-0.176 -0.6,-0.416 -0.84,-0.72 -0.24,-0.304 -0.36,-0.704 -0.36,-1.2 0,-0.36799 0.12,-0.74399 0.36,-1.128 0.24,-0.39999 0.584,-0.75199 1.032,-1.056 l 0,-0.096 c -0.4,-0.30399 -0.744,-0.70399 -1.032,-1.2 -0.272,-0.51199 -0.408,-1.11999 -0.408,-1.824 0,-0.63999 0.12,-1.21599 0.36,-1.728 0.256,-0.51199 0.592,-0.94399 1.008,-1.296 0.416,-0.36799 0.896,-0.64799 1.44,-0.84 0.55999,-0.20799 1.15199,-0.31199 1.776,-0.312 0.63999,1e-5 1.21599,0.096 1.728,0.288 l 4.824,0 0,1.512 -3.12,0 c 0.27199,0.28801 0.51999,0.64001 0.744,1.056 0.22399,0.41601 0.33599,0.88001 0.336,1.392 -10e-6,0.62401 -0.12001,1.18401 -0.36,1.68 -0.22401,0.49601 -0.54401,0.92001 -0.96,1.272 -0.40001,0.33601 -0.88001,0.60001 -1.44,0.792 -0.54401,0.17601 -1.12801,0.26401 -1.752,0.264 -0.30401,1e-5 -0.63201,-0.032 -0.984,-0.096 -0.33601,-0.08 -0.66401,-0.19199 -0.984,-0.336 -0.608,0.38401 -0.912,0.83201 -0.912,1.344 0,0.464 0.208,0.808 0.624,1.032 0.43199,0.208 1.03199,0.312 1.8,0.312 l 2.616,0 c 1.50399,0 2.61599,0.208 3.336,0.624 0.73599,0.416 1.10399,1.12 1.104,2.112 -1e-5,0.544 -0.15201,1.064 -0.456,1.56 -0.30401,0.496 -0.73601,0.928 -1.296,1.296 -0.56001,0.368 -1.24001,0.664 -2.04,0.888 -0.80001,0.224 -1.69601,0.336 -2.688,0.336 -1.71201,0 -3.04,-0.28 -3.984,-0.84 -0.928,-0.56 -1.392,-1.36 -1.392,-2.4 m 5.256,-7.152 c 0.75199,1e-5 1.38399,-0.24799 1.896,-0.744 0.52799,-0.49599 0.79199,-1.16799 0.792,-2.016 -1e-5,-0.39999 -0.072,-0.76799 -0.216,-1.104 -0.14401,-0.33599 -0.33601,-0.62399 -0.576,-0.864 -0.24001,-0.23999 -0.52801,-0.42399 -0.864,-0.552 -0.32001,-0.14399 -0.66401,-0.21599 -1.032,-0.216 -0.36801,1e-5 -0.72001,0.072 -1.056,0.216 -0.32001,0.12801 -0.60001,0.31201 -0.84,0.552 -0.24,0.24001 -0.432,0.52801 -0.576,0.864 -0.144,0.33601 -0.216,0.70401 -0.216,1.104 0,0.84801 0.264,1.52001 0.792,2.016 0.52799,0.49601 1.15999,0.74401 1.896,0.744"
         id="path3054"
         inkscape:connector-curvature="0" />
      <path
         d="m 356.79262,144.20218 -1.776,0 7.872,-20.88 1.776,0 -7.872,20.88"
         id="path3056"
         inkscape:connector-curvature="0" />
      <path
         d="m 369.26325,123.27418 1.968,0 0,4.656 -0.096,2.76 c 0.624,-0.65599 1.28799,-1.19999 1.992,-1.632 0.70399,-0.43199 1.51199,-0.64799 2.424,-0.648 1.39199,1e-5 2.40799,0.40001 3.048,1.2 0.65599,0.78401 0.98399,1.95201 0.984,3.504 l 0,7.248 -1.968,0 0,-6.984 c -1e-5,-1.10399 -0.20801,-1.91999 -0.624,-2.448 -0.41601,-0.54399 -1.10401,-0.81599 -2.064,-0.816 -0.35201,1e-5 -0.68001,0.048 -0.984,0.144 -0.28801,0.08 -0.57601,0.20801 -0.864,0.384 -0.28801,0.17601 -0.58401,0.40001 -0.888,0.672 -0.304,0.25601 -0.624,0.56001 -0.96,0.912 l 0,8.136 -1.968,0 0,-17.088"
         id="path3058"
         inkscape:connector-curvature="0" />
      <path
         d="m 386.36588,130.30618 -3.28801,0 0,-1.488 3.36001,-0.12 0.26399,-3.264 1.632,0 0,3.264 5.73601,0 0,1.608 -5.73601,0 0,5.544 c 0,0.52801 0.048,0.99201 0.144,1.392 0.096,0.38401 0.256,0.71201 0.48,0.984 0.224,0.272 0.528,0.48 0.912,0.624 0.384,0.128 0.856,0.192 1.416,0.192 0.55999,0 1.06399,-0.048 1.512,-0.144 0.44799,-0.096 0.87999,-0.224 1.29601,-0.384 l 0.43199,1.44 c -0.52801,0.192 -1.11201,0.352 -1.752,0.48 -0.64001,0.144 -1.28001,0.216 -1.91999,0.216 -0.84801,0 -1.56001,-0.112 -2.13601,-0.336 -0.576,-0.24 -1.04,-0.568 -1.392,-0.984 -0.336,-0.432 -0.584,-0.944 -0.74399,-1.536 -0.14401,-0.59199 -0.21601,-1.24799 -0.216,-1.968 l 0,-5.52"
         id="path3060"
         inkscape:connector-curvature="0" />
      <path
         d="m 397.2525,128.69818 1.536,0 0.168,1.536 0.072,0 c 0.288,-0.54399 0.624,-0.98399 1.008,-1.32 0.4,-0.33599 0.93599,-0.50399 1.608,-0.504 1.18399,1e-5 1.91999,0.67201 2.208,2.016 0.35199,-0.60799 0.73599,-1.09599 1.152,-1.464 0.41599,-0.36799 0.95199,-0.55199 1.608,-0.552 0.81599,1e-5 1.43999,0.31201 1.872,0.936 0.44799,0.60801 0.67199,1.49601 0.672,2.664 l 0,8.352 -1.896,0 0,-8.184 c -10e-6,-1.37599 -0.42401,-2.06399 -1.272,-2.064 -0.41601,1e-5 -0.77601,0.15201 -1.08,0.456 -0.30401,0.28801 -0.60801,0.73601 -0.912,1.344 l 0,8.448 -1.584,0 0,-8.184 c -1e-5,-1.37599 -0.44001,-2.06399 -1.32,-2.064 -0.416,1e-5 -0.768,0.15201 -1.056,0.456 -0.288,0.28801 -0.584,0.73601 -0.888,1.344 l 0,8.448 -1.896,0 0,-11.664"
         id="path3062"
         inkscape:connector-curvature="0" />
      <path
         d="m 412.14713,123.27418 5.952,0 0,13.32 c -10e-6,0.86401 0.19999,1.488 0.59999,1.872 0.416,0.368 0.976,0.552 1.68,0.552 0.63999,0 1.37599,-0.184 2.20801,-0.552 l 0.50399,1.488 c -0.52801,0.192 -1.02401,0.352 -1.488,0.48 -0.46401,0.144 -1.01601,0.216 -1.65599,0.216 -1.24801,0 -2.20001,-0.352 -2.85601,-1.056 -0.64,-0.704 -0.96,-1.75199 -0.96,-3.144 l 0,-11.568 -3.98399,0 0,-1.608"
         id="path3064"
         inkscape:connector-curvature="0" />
      <path
         d="m 428.74575,144.20218 -1.776,0 7.872,-20.88 1.776,0 -7.872,20.88"
         id="path3066"
         inkscape:connector-curvature="0" />
    </g>
  </g>
</svg>
